<svg width="1920" height="596" viewBox="0 0 1920 596" fill="none" xmlns="http://www.w3.org/2000/svg">
<path d="M1850 208C1871 185.445 1895 176.5 1921 198V594L1536.45 593.168C1535.44 593.001 1536.44 560.314 1536.45 487.268C1536.45 450.338 1594.9 399.658 1610.59 388.889C1633.13 373.408 1689.74 363.42 1746.85 378.901C1831.47 401.84 1782.5 280.5 1850 208Z" fill="#8C52FF" stroke="black"/>
<path d="M1814.92 244C1852.46 244 1891.81 269 1921 294.5V596H1215C1215 596 1324 477 1425.15 456C1533.66 433.471 1667.82 532.5 1731.87 320.5C1751.3 256.165 1775.4 244 1814.92 244Z" fill="#FFEB3C" stroke="black"/>
<circle cx="1426.5" cy="456.5" r="7" fill="#8C52FF" stroke="black"/>
<circle cx="1785.5" cy="247.5" r="7" fill="#8C52FF" stroke="black"/>
<circle cx="1619.5" cy="381.5" r="7" fill="#FFEB3C" stroke="black"/>
<circle cx="1888.5" cy="185.5" r="7" fill="#FFEB3C" stroke="black"/>
<path d="M103.61 241C66.0574 241 28.1975 265.965 -1 291.428V592H473C473 592 404.428 452.699 352.873 441.215C302.456 429.985 224.1 465.425 186.698 317.391C171.182 255.979 143.152 241 103.61 241Z" fill="#8C52FF" stroke="black"/>
<path d="M184 284.701C101.661 276.126 28.8333 348.326 -1 388.134V596H1079C1035.5 548.364 895 574.014 813 547.531C763 531.383 703 426.609 616 410.12C529 393.631 432.5 507.435 348.5 480.075C255.916 449.918 283.242 295.035 184 284.701Z" fill="#FFEB3C" stroke="black"/>
<circle cx="608.5" cy="409.5" r="7" fill="#8C52FF" stroke="black"/>
<circle cx="1012.5" cy="567.5" r="7" fill="#8C52FF" stroke="black"/>
<circle cx="188.5" cy="284.5" r="7" fill="#8C52FF" stroke="black"/>
<circle cx="108.5" cy="240.5" r="7" fill="#FFEB3C" stroke="black"/>
<circle cx="355.5" cy="442.5" r="7" fill="#FFEB3C" stroke="black"/>
<line x1="1" y1="490.5" x2="1920" y2="490.5" stroke="black"/>
<path d="M106 480L106 490L106 500" stroke="black"/>
<path d="M196 480L196 490L196 500" stroke="black"/>
<path d="M286 480L286 490L286 500" stroke="black"/>
<path d="M376 480L376 490L376 500" stroke="black"/>
<path d="M466 480L466 490L466 500" stroke="black"/>
<path d="M556 480L556 490L556 500" stroke="black"/>
<path d="M646 480L646 490L646 500" stroke="black"/>
<path d="M736 480L736 490L736 500" stroke="black"/>
<path d="M826 480L826 490L826 500" stroke="black"/>
<path d="M916 480L916 490L916 500" stroke="black"/>
<path d="M1006 480L1006 490L1006 500" stroke="black"/>
<path d="M1096 480L1096 490L1096 500" stroke="black"/>
<path d="M1186 480L1186 490L1186 500" stroke="black"/>
<path d="M1276 480L1276 490L1276 500" stroke="black"/>
<path d="M1366 480L1366 490L1366 500" stroke="black"/>
<path d="M1456 480L1456 490L1456 500" stroke="black"/>
<path d="M1546 480L1546 490L1546 500" stroke="black"/>
<path d="M1636 480L1636 490L1636 500" stroke="black"/>
<path d="M1726 480L1726 490L1726 500" stroke="black"/>
<path d="M1816 480L1816 490L1816 500" stroke="black"/>
<path d="M105.602 532V521.44L106.29 522.192H103.074V520.8H107.186V532H105.602Z" fill="black"/>
<path d="M191.492 532V530.912L196.052 526.512C196.458 526.128 196.756 525.792 196.948 525.504C197.151 525.205 197.284 524.933 197.348 524.688C197.423 524.432 197.46 524.187 197.46 523.952C197.46 523.376 197.258 522.923 196.852 522.592C196.447 522.261 195.855 522.096 195.076 522.096C194.479 522.096 193.94 522.197 193.46 522.4C192.98 522.592 192.564 522.896 192.212 523.312L191.124 522.368C191.551 521.824 192.122 521.408 192.836 521.12C193.562 520.821 194.356 520.672 195.22 520.672C195.999 520.672 196.676 520.8 197.252 521.056C197.828 521.301 198.271 521.659 198.58 522.128C198.9 522.597 199.06 523.152 199.06 523.792C199.06 524.155 199.012 524.512 198.916 524.864C198.82 525.216 198.639 525.589 198.372 525.984C198.106 526.379 197.722 526.821 197.22 527.312L193.156 531.232L192.772 530.608H199.54V532H191.492Z" fill="black"/>
<path d="M285.046 532.128C284.256 532.128 283.488 532.005 282.742 531.76C282.006 531.515 281.403 531.184 280.934 530.768L281.67 529.504C282.043 529.856 282.528 530.144 283.126 530.368C283.723 530.592 284.363 530.704 285.046 530.704C285.878 530.704 286.523 530.528 286.982 530.176C287.451 529.813 287.686 529.328 287.686 528.72C287.686 528.133 287.462 527.664 287.014 527.312C286.576 526.949 285.878 526.768 284.918 526.768H284.022V525.648L287.35 521.552L287.574 522.192H281.446V520.8H288.838V521.888L285.526 525.968L284.694 525.472H285.222C286.576 525.472 287.59 525.776 288.262 526.384C288.944 526.992 289.286 527.765 289.286 528.704C289.286 529.333 289.131 529.909 288.822 530.432C288.512 530.955 288.043 531.371 287.414 531.68C286.795 531.979 286.006 532.128 285.046 532.128Z" fill="black"/>
<path d="M371.415 529.248V528.128L377.143 520.8H378.871L373.191 528.128L372.375 527.872H381.319V529.248H371.415ZM377.639 532V529.248L377.687 527.872V525.44H379.191V532H377.639Z" fill="black"/>
<path d="M465.144 532.128C464.354 532.128 463.586 532.005 462.84 531.76C462.104 531.515 461.501 531.184 461.032 530.768L461.768 529.504C462.141 529.856 462.626 530.144 463.224 530.368C463.821 530.592 464.456 530.704 465.128 530.704C465.981 530.704 466.637 530.523 467.096 530.16C467.554 529.797 467.784 529.312 467.784 528.704C467.784 528.288 467.682 527.925 467.48 527.616C467.277 527.307 466.925 527.072 466.424 526.912C465.933 526.741 465.256 526.656 464.392 526.656H461.848L462.44 520.8H468.76V522.192H463.032L463.864 521.408L463.4 526.032L462.568 525.264H464.728C465.848 525.264 466.749 525.408 467.432 525.696C468.114 525.984 468.61 526.384 468.92 526.896C469.229 527.397 469.384 527.979 469.384 528.64C469.384 529.28 469.229 529.867 468.92 530.4C468.61 530.923 468.141 531.344 467.512 531.664C466.893 531.973 466.104 532.128 465.144 532.128Z" fill="black"/>
<path d="M556.185 532.128C555.193 532.128 554.345 531.909 553.641 531.472C552.937 531.035 552.398 530.405 552.025 529.584C551.662 528.752 551.481 527.739 551.481 526.544C551.481 525.275 551.705 524.203 552.153 523.328C552.601 522.453 553.225 521.792 554.025 521.344C554.825 520.896 555.742 520.672 556.777 520.672C557.31 520.672 557.817 520.725 558.297 520.832C558.788 520.939 559.209 521.104 559.561 521.328L558.953 522.576C558.665 522.373 558.334 522.235 557.961 522.16C557.598 522.085 557.214 522.048 556.809 522.048C555.668 522.048 554.761 522.405 554.089 523.12C553.417 523.824 553.081 524.875 553.081 526.272C553.081 526.496 553.092 526.763 553.113 527.072C553.134 527.381 553.188 527.685 553.273 527.984L552.729 527.44C552.889 526.949 553.14 526.539 553.481 526.208C553.833 525.867 554.249 525.616 554.729 525.456C555.22 525.285 555.748 525.2 556.313 525.2C557.06 525.2 557.721 525.339 558.297 525.616C558.873 525.893 559.326 526.288 559.657 526.8C559.988 527.301 560.153 527.899 560.153 528.592C560.153 529.307 559.977 529.931 559.625 530.464C559.273 530.997 558.798 531.408 558.201 531.696C557.604 531.984 556.932 532.128 556.185 532.128ZM556.121 530.832C556.612 530.832 557.038 530.741 557.401 530.56C557.774 530.379 558.068 530.128 558.281 529.808C558.494 529.477 558.601 529.093 558.601 528.656C558.601 527.995 558.372 527.472 557.913 527.088C557.454 526.693 556.83 526.496 556.041 526.496C555.529 526.496 555.081 526.592 554.697 526.784C554.313 526.976 554.009 527.237 553.785 527.568C553.572 527.888 553.465 528.256 553.465 528.672C553.465 529.056 553.566 529.413 553.769 529.744C553.972 530.064 554.27 530.325 554.665 530.528C555.06 530.731 555.545 530.832 556.121 530.832Z" fill="black"/>
<path d="M643.37 532L648.122 521.472L648.538 522.192H641.882L642.682 521.408V524.192H641.146V520.8H649.594V521.888L645.066 532H643.37Z" fill="black"/>
<path d="M735.755 532.128C734.848 532.128 734.064 531.995 733.403 531.728C732.742 531.461 732.23 531.083 731.867 530.592C731.504 530.091 731.323 529.504 731.323 528.832C731.323 528.171 731.494 527.611 731.835 527.152C732.187 526.683 732.694 526.331 733.355 526.096C734.016 525.851 734.816 525.728 735.755 525.728C736.694 525.728 737.494 525.851 738.155 526.096C738.827 526.331 739.339 526.683 739.691 527.152C740.043 527.621 740.219 528.181 740.219 528.832C740.219 529.504 740.038 530.091 739.675 530.592C739.312 531.083 738.795 531.461 738.123 531.728C737.451 531.995 736.662 532.128 735.755 532.128ZM735.755 530.832C736.651 530.832 737.35 530.651 737.851 530.288C738.363 529.915 738.619 529.413 738.619 528.784C738.619 528.165 738.363 527.68 737.851 527.328C737.35 526.965 736.651 526.784 735.755 526.784C734.87 526.784 734.176 526.965 733.675 527.328C733.174 527.68 732.923 528.165 732.923 528.784C732.923 529.413 733.174 529.915 733.675 530.288C734.176 530.651 734.87 530.832 735.755 530.832ZM735.755 526.592C734.902 526.592 734.176 526.48 733.579 526.256C732.982 526.021 732.523 525.691 732.203 525.264C731.883 524.827 731.723 524.309 731.723 523.712C731.723 523.083 731.888 522.544 732.219 522.096C732.56 521.637 733.035 521.285 733.643 521.04C734.251 520.795 734.955 520.672 735.755 520.672C736.566 520.672 737.275 520.795 737.883 521.04C738.491 521.285 738.966 521.637 739.307 522.096C739.648 522.544 739.819 523.083 739.819 523.712C739.819 524.309 739.659 524.827 739.339 525.264C739.019 525.691 738.555 526.021 737.947 526.256C737.339 526.48 736.608 526.592 735.755 526.592ZM735.755 525.568C736.534 525.568 737.142 525.408 737.579 525.088C738.027 524.768 738.251 524.331 738.251 523.776C738.251 523.211 738.022 522.768 737.563 522.448C737.104 522.128 736.502 521.968 735.755 521.968C735.008 521.968 734.411 522.128 733.963 522.448C733.526 522.768 733.307 523.211 733.307 523.776C733.307 524.331 733.52 524.768 733.947 525.088C734.384 525.408 734.987 525.568 735.755 525.568Z" fill="black"/>
<path d="M824.972 520.672C825.986 520.672 826.839 520.891 827.532 521.328C828.236 521.765 828.77 522.4 829.132 523.232C829.495 524.053 829.676 525.061 829.676 526.256C829.676 527.525 829.452 528.597 829.004 529.472C828.556 530.347 827.938 531.008 827.148 531.456C826.359 531.904 825.436 532.128 824.38 532.128C823.858 532.128 823.351 532.075 822.86 531.968C822.38 531.861 821.959 531.696 821.596 531.472L822.204 530.224C822.503 530.416 822.834 530.555 823.196 530.64C823.57 530.715 823.959 530.752 824.364 530.752C825.495 530.752 826.396 530.4 827.068 529.696C827.74 528.981 828.076 527.925 828.076 526.528C828.076 526.304 828.066 526.037 828.044 525.728C828.023 525.419 827.975 525.115 827.9 524.816L828.428 525.36C828.279 525.851 828.028 526.267 827.676 526.608C827.335 526.939 826.919 527.189 826.428 527.36C825.948 527.52 825.42 527.6 824.844 527.6C824.108 527.6 823.452 527.461 822.876 527.184C822.3 526.907 821.847 526.517 821.516 526.016C821.186 525.504 821.02 524.901 821.02 524.208C821.02 523.483 821.191 522.859 821.532 522.336C821.884 521.803 822.359 521.392 822.956 521.104C823.564 520.816 824.236 520.672 824.972 520.672ZM825.036 521.968C824.556 521.968 824.13 522.059 823.756 522.24C823.383 522.421 823.09 522.672 822.876 522.992C822.674 523.312 822.572 523.696 822.572 524.144C822.572 524.805 822.802 525.333 823.26 525.728C823.719 526.112 824.338 526.304 825.116 526.304C825.628 526.304 826.076 526.208 826.46 526.016C826.855 525.824 827.159 525.563 827.372 525.232C827.596 524.901 827.708 524.533 827.708 524.128C827.708 523.733 827.607 523.376 827.404 523.056C827.202 522.736 826.903 522.475 826.508 522.272C826.114 522.069 825.623 521.968 825.036 521.968Z" fill="black"/>
<path d="M910.183 532V521.44L910.871 522.192H907.655V520.8H911.767V532H910.183ZM918.793 532.128C917.919 532.128 917.135 531.904 916.441 531.456C915.759 531.008 915.215 530.357 914.809 529.504C914.415 528.651 914.217 527.616 914.217 526.4C914.217 525.184 914.415 524.149 914.809 523.296C915.215 522.443 915.759 521.792 916.441 521.344C917.135 520.896 917.919 520.672 918.793 520.672C919.657 520.672 920.436 520.896 921.129 521.344C921.823 521.792 922.367 522.443 922.761 523.296C923.156 524.149 923.353 525.184 923.353 526.4C923.353 527.616 923.156 528.651 922.761 529.504C922.367 530.357 921.823 531.008 921.129 531.456C920.436 531.904 919.657 532.128 918.793 532.128ZM918.793 530.704C919.38 530.704 919.892 530.544 920.329 530.224C920.777 529.904 921.124 529.424 921.369 528.784C921.625 528.144 921.753 527.349 921.753 526.4C921.753 525.451 921.625 524.656 921.369 524.016C921.124 523.376 920.777 522.896 920.329 522.576C919.892 522.256 919.38 522.096 918.793 522.096C918.207 522.096 917.689 522.256 917.241 522.576C916.793 522.896 916.441 523.376 916.185 524.016C915.94 524.656 915.817 525.451 915.817 526.4C915.817 527.349 915.94 528.144 916.185 528.784C916.441 529.424 916.793 529.904 917.241 530.224C917.689 530.544 918.207 530.704 918.793 530.704Z" fill="black"/>
<path d="M1002.14 532V521.44L1002.82 522.192H999.607V520.8H1003.72V532H1002.14ZM1008.06 532V521.44L1008.75 522.192H1005.53V520.8H1009.64V532H1008.06Z" fill="black"/>
<path d="M1090.09 532V521.44L1090.78 522.192H1087.56V520.8H1091.67V532H1090.09ZM1093.95 532V530.912L1098.51 526.512C1098.91 526.128 1099.21 525.792 1099.4 525.504C1099.61 525.205 1099.74 524.933 1099.8 524.688C1099.88 524.432 1099.92 524.187 1099.92 523.952C1099.92 523.376 1099.71 522.923 1099.31 522.592C1098.9 522.261 1098.31 522.096 1097.53 522.096C1096.93 522.096 1096.4 522.197 1095.92 522.4C1095.44 522.592 1095.02 522.896 1094.67 523.312L1093.58 522.368C1094.01 521.824 1094.58 521.408 1095.29 521.12C1096.02 520.821 1096.81 520.672 1097.68 520.672C1098.45 520.672 1099.13 520.8 1099.71 521.056C1100.28 521.301 1100.73 521.659 1101.04 522.128C1101.36 522.597 1101.52 523.152 1101.52 523.792C1101.52 524.155 1101.47 524.512 1101.37 524.864C1101.28 525.216 1101.09 525.589 1100.83 525.984C1100.56 526.379 1100.18 526.821 1099.68 527.312L1095.61 531.232L1095.23 530.608H1102V532H1093.95Z" fill="black"/>
<path d="M1180.04 532V521.44L1180.73 522.192H1177.51V520.8H1181.63V532H1180.04ZM1187.5 532.128C1186.71 532.128 1185.94 532.005 1185.2 531.76C1184.46 531.515 1183.86 531.184 1183.39 530.768L1184.12 529.504C1184.5 529.856 1184.98 530.144 1185.58 530.368C1186.18 530.592 1186.82 530.704 1187.5 530.704C1188.33 530.704 1188.98 530.528 1189.44 530.176C1189.91 529.813 1190.14 529.328 1190.14 528.72C1190.14 528.133 1189.92 527.664 1189.47 527.312C1189.03 526.949 1188.33 526.768 1187.37 526.768H1186.48V525.648L1189.8 521.552L1190.03 522.192H1183.9V520.8H1191.29V521.888L1187.98 525.968L1187.15 525.472H1187.68C1189.03 525.472 1190.04 525.776 1190.72 526.384C1191.4 526.992 1191.74 527.765 1191.74 528.704C1191.74 529.333 1191.59 529.909 1191.28 530.432C1190.97 530.955 1190.5 531.371 1189.87 531.68C1189.25 531.979 1188.46 532.128 1187.5 532.128Z" fill="black"/>
<path d="M1270 532V521.44L1270.68 522.192H1267.47V520.8H1271.58V532H1270ZM1273.87 529.248V528.128L1279.6 520.8H1281.33L1275.65 528.128L1274.83 527.872H1283.77V529.248H1273.87ZM1280.09 532V529.248L1280.14 527.872V525.44H1281.65V532H1280.09Z" fill="black"/>
<path d="M1359.95 532V521.44L1360.64 522.192H1357.42V520.8H1361.53V532H1359.95ZM1367.6 532.128C1366.81 532.128 1366.04 532.005 1365.29 531.76C1364.56 531.515 1363.96 531.184 1363.49 530.768L1364.22 529.504C1364.6 529.856 1365.08 530.144 1365.68 530.368C1366.28 530.592 1366.91 530.704 1367.58 530.704C1368.44 530.704 1369.09 530.523 1369.55 530.16C1370.01 529.797 1370.24 529.312 1370.24 528.704C1370.24 528.288 1370.14 527.925 1369.93 527.616C1369.73 527.307 1369.38 527.072 1368.88 526.912C1368.39 526.741 1367.71 526.656 1366.85 526.656H1364.3L1364.89 520.8H1371.21V522.192H1365.49L1366.32 521.408L1365.85 526.032L1365.02 525.264H1367.18C1368.3 525.264 1369.2 525.408 1369.89 525.696C1370.57 525.984 1371.07 526.384 1371.37 526.896C1371.68 527.397 1371.84 527.979 1371.84 528.64C1371.84 529.28 1371.68 529.867 1371.37 530.4C1371.07 530.923 1370.6 531.344 1369.97 531.664C1369.35 531.973 1368.56 532.128 1367.6 532.128Z" fill="black"/>
<path d="M1449.9 532V521.44L1450.59 522.192H1447.37V520.8H1451.49V532H1449.9ZM1458.64 532.128C1457.65 532.128 1456.8 531.909 1456.1 531.472C1455.39 531.035 1454.85 530.405 1454.48 529.584C1454.12 528.752 1453.94 527.739 1453.94 526.544C1453.94 525.275 1454.16 524.203 1454.61 523.328C1455.06 522.453 1455.68 521.792 1456.48 521.344C1457.28 520.896 1458.2 520.672 1459.23 520.672C1459.77 520.672 1460.27 520.725 1460.75 520.832C1461.24 520.939 1461.66 521.104 1462.02 521.328L1461.41 522.576C1461.12 522.373 1460.79 522.235 1460.42 522.16C1460.05 522.085 1459.67 522.048 1459.26 522.048C1458.12 522.048 1457.22 522.405 1456.54 523.12C1455.87 523.824 1455.54 524.875 1455.54 526.272C1455.54 526.496 1455.55 526.763 1455.57 527.072C1455.59 527.381 1455.64 527.685 1455.73 527.984L1455.18 527.44C1455.34 526.949 1455.59 526.539 1455.94 526.208C1456.29 525.867 1456.7 525.616 1457.18 525.456C1457.67 525.285 1458.2 525.2 1458.77 525.2C1459.51 525.2 1460.18 525.339 1460.75 525.616C1461.33 525.893 1461.78 526.288 1462.11 526.8C1462.44 527.301 1462.61 527.899 1462.61 528.592C1462.61 529.307 1462.43 529.931 1462.08 530.464C1461.73 530.997 1461.25 531.408 1460.66 531.696C1460.06 531.984 1459.39 532.128 1458.64 532.128ZM1458.58 530.832C1459.07 530.832 1459.49 530.741 1459.86 530.56C1460.23 530.379 1460.52 530.128 1460.74 529.808C1460.95 529.477 1461.06 529.093 1461.06 528.656C1461.06 527.995 1460.83 527.472 1460.37 527.088C1459.91 526.693 1459.29 526.496 1458.5 526.496C1457.98 526.496 1457.54 526.592 1457.15 526.784C1456.77 526.976 1456.46 527.237 1456.24 527.568C1456.03 527.888 1455.92 528.256 1455.92 528.672C1455.92 529.056 1456.02 529.413 1456.22 529.744C1456.43 530.064 1456.73 530.325 1457.12 530.528C1457.51 530.731 1458 530.832 1458.58 530.832Z" fill="black"/>
<path d="M1539.86 532V521.44L1540.54 522.192H1537.33V520.8H1541.44V532H1539.86ZM1545.83 532L1550.58 521.472L1550.99 522.192H1544.34L1545.14 521.408V524.192H1543.6V520.8H1552.05V521.888L1547.52 532H1545.83Z" fill="black"/>
<path d="M1629.81 532V521.44L1630.5 522.192H1627.28V520.8H1631.39V532H1629.81ZM1638.21 532.128C1637.3 532.128 1636.52 531.995 1635.86 531.728C1635.2 531.461 1634.68 531.083 1634.32 530.592C1633.96 530.091 1633.78 529.504 1633.78 528.832C1633.78 528.171 1633.95 527.611 1634.29 527.152C1634.64 526.683 1635.15 526.331 1635.81 526.096C1636.47 525.851 1637.27 525.728 1638.21 525.728C1639.15 525.728 1639.95 525.851 1640.61 526.096C1641.28 526.331 1641.79 526.683 1642.15 527.152C1642.5 527.621 1642.67 528.181 1642.67 528.832C1642.67 529.504 1642.49 530.091 1642.13 530.592C1641.77 531.083 1641.25 531.461 1640.58 531.728C1639.91 531.995 1639.12 532.128 1638.21 532.128ZM1638.21 530.832C1639.11 530.832 1639.8 530.651 1640.31 530.288C1640.82 529.915 1641.07 529.413 1641.07 528.784C1641.07 528.165 1640.82 527.68 1640.31 527.328C1639.8 526.965 1639.11 526.784 1638.21 526.784C1637.32 526.784 1636.63 526.965 1636.13 527.328C1635.63 527.68 1635.38 528.165 1635.38 528.784C1635.38 529.413 1635.63 529.915 1636.13 530.288C1636.63 530.651 1637.32 530.832 1638.21 530.832ZM1638.21 526.592C1637.36 526.592 1636.63 526.48 1636.03 526.256C1635.44 526.021 1634.98 525.691 1634.66 525.264C1634.34 524.827 1634.18 524.309 1634.18 523.712C1634.18 523.083 1634.34 522.544 1634.67 522.096C1635.02 521.637 1635.49 521.285 1636.1 521.04C1636.71 520.795 1637.41 520.672 1638.21 520.672C1639.02 520.672 1639.73 520.795 1640.34 521.04C1640.95 521.285 1641.42 521.637 1641.76 522.096C1642.1 522.544 1642.27 523.083 1642.27 523.712C1642.27 524.309 1642.11 524.827 1641.79 525.264C1641.47 525.691 1641.01 526.021 1640.4 526.256C1639.79 526.48 1639.06 526.592 1638.21 526.592ZM1638.21 525.568C1638.99 525.568 1639.6 525.408 1640.03 525.088C1640.48 524.768 1640.71 524.331 1640.71 523.776C1640.71 523.211 1640.48 522.768 1640.02 522.448C1639.56 522.128 1638.96 521.968 1638.21 521.968C1637.46 521.968 1636.87 522.128 1636.42 522.448C1635.98 522.768 1635.76 523.211 1635.76 523.776C1635.76 524.331 1635.98 524.768 1636.4 525.088C1636.84 525.408 1637.44 525.568 1638.21 525.568Z" fill="black"/>
<path d="M1720.76 532V521.44L1721.45 522.192H1718.23V520.8H1722.35V532H1720.76ZM1728.43 520.672C1729.44 520.672 1730.29 520.891 1730.99 521.328C1731.69 521.765 1732.22 522.4 1732.59 523.232C1732.95 524.053 1733.13 525.061 1733.13 526.256C1733.13 527.525 1732.91 528.597 1732.46 529.472C1732.01 530.347 1731.39 531.008 1730.6 531.456C1729.81 531.904 1728.89 532.128 1727.84 532.128C1727.31 532.128 1726.81 532.075 1726.32 531.968C1725.84 531.861 1725.41 531.696 1725.05 531.472L1725.66 530.224C1725.96 530.416 1726.29 530.555 1726.65 530.64C1727.02 530.715 1727.41 530.752 1727.82 530.752C1728.95 530.752 1729.85 530.4 1730.52 529.696C1731.2 528.981 1731.53 527.925 1731.53 526.528C1731.53 526.304 1731.52 526.037 1731.5 525.728C1731.48 525.419 1731.43 525.115 1731.36 524.816L1731.88 525.36C1731.73 525.851 1731.48 526.267 1731.13 526.608C1730.79 526.939 1730.37 527.189 1729.88 527.36C1729.4 527.52 1728.88 527.6 1728.3 527.6C1727.56 527.6 1726.91 527.461 1726.33 527.184C1725.76 526.907 1725.3 526.517 1724.97 526.016C1724.64 525.504 1724.48 524.901 1724.48 524.208C1724.48 523.483 1724.65 522.859 1724.99 522.336C1725.34 521.803 1725.81 521.392 1726.41 521.104C1727.02 520.816 1727.69 520.672 1728.43 520.672ZM1728.49 521.968C1728.01 521.968 1727.58 522.059 1727.21 522.24C1726.84 522.421 1726.54 522.672 1726.33 522.992C1726.13 523.312 1726.03 523.696 1726.03 524.144C1726.03 524.805 1726.26 525.333 1726.72 525.728C1727.17 526.112 1727.79 526.304 1728.57 526.304C1729.08 526.304 1729.53 526.208 1729.92 526.016C1730.31 525.824 1730.61 525.563 1730.83 525.232C1731.05 524.901 1731.16 524.533 1731.16 524.128C1731.16 523.733 1731.06 523.376 1730.86 523.056C1730.66 522.736 1730.36 522.475 1729.96 522.272C1729.57 522.069 1729.08 521.968 1728.49 521.968Z" fill="black"/>
<path d="M1805.65 532V530.912L1810.21 526.512C1810.62 526.128 1810.92 525.792 1811.11 525.504C1811.31 525.205 1811.44 524.933 1811.51 524.688C1811.58 524.432 1811.62 524.187 1811.62 523.952C1811.62 523.376 1811.42 522.923 1811.01 522.592C1810.61 522.261 1810.01 522.096 1809.24 522.096C1808.64 522.096 1808.1 522.197 1807.62 522.4C1807.14 522.592 1806.72 522.896 1806.37 523.312L1805.28 522.368C1805.71 521.824 1806.28 521.408 1807 521.12C1807.72 520.821 1808.52 520.672 1809.38 520.672C1810.16 520.672 1810.84 520.8 1811.41 521.056C1811.99 521.301 1812.43 521.659 1812.74 522.128C1813.06 522.597 1813.22 523.152 1813.22 523.792C1813.22 524.155 1813.17 524.512 1813.08 524.864C1812.98 525.216 1812.8 525.589 1812.53 525.984C1812.26 526.379 1811.88 526.821 1811.38 527.312L1807.32 531.232L1806.93 530.608H1813.7V532H1805.65ZM1819.58 532.128C1818.7 532.128 1817.92 531.904 1817.22 531.456C1816.54 531.008 1816 530.357 1815.59 529.504C1815.2 528.651 1815 527.616 1815 526.4C1815 525.184 1815.2 524.149 1815.59 523.296C1816 522.443 1816.54 521.792 1817.22 521.344C1817.92 520.896 1818.7 520.672 1819.58 520.672C1820.44 520.672 1821.22 520.896 1821.91 521.344C1822.6 521.792 1823.15 522.443 1823.54 523.296C1823.94 524.149 1824.14 525.184 1824.14 526.4C1824.14 527.616 1823.94 528.651 1823.54 529.504C1823.15 530.357 1822.6 531.008 1821.91 531.456C1821.22 531.904 1820.44 532.128 1819.58 532.128ZM1819.58 530.704C1820.16 530.704 1820.67 530.544 1821.11 530.224C1821.56 529.904 1821.91 529.424 1822.15 528.784C1822.41 528.144 1822.54 527.349 1822.54 526.4C1822.54 525.451 1822.41 524.656 1822.15 524.016C1821.91 523.376 1821.56 522.896 1821.11 522.576C1820.67 522.256 1820.16 522.096 1819.58 522.096C1818.99 522.096 1818.47 522.256 1818.02 522.576C1817.58 522.896 1817.22 523.376 1816.97 524.016C1816.72 524.656 1816.6 525.451 1816.6 526.4C1816.6 527.349 1816.72 528.144 1816.97 528.784C1817.22 529.424 1817.58 529.904 1818.02 530.224C1818.47 530.544 1818.99 530.704 1819.58 530.704Z" fill="black"/>
<path d="M1730.38 326C1644.72 246.5 1699.5 196 1714.94 182.5C1730.38 169 1769.72 118 1714.94 54" stroke="black" stroke-dasharray="25 25"/>
<path d="M1677.59 9L1706.86 34.6991L1707.22 44.9098C1707.28 46.7265 1705.08 47.6793 1703.8 46.3914L1697.7 40.2696M1683.52 45.7424L1676.79 10.6725C1676.49 9.11194 1678.04 7.84226 1679.51 8.44514L1717.96 24.2127C1719.48 24.8351 1719.65 26.9191 1718.24 27.7718L1686.52 47.0741C1685.33 47.7992 1683.78 47.1124 1683.52 45.7424Z" stroke="black" stroke-width="2" stroke-linecap="round" stroke-linejoin="round"/>
<path d="M123.332 243C70.36 135 168.309 131 203.79 138.5C233.196 144.716 289.246 168 309.735 113" stroke="black" stroke-dasharray="25 25"/>
<path d="M345.717 67L316.342 92.6991L315.982 102.922C315.919 104.737 318.112 105.691 319.396 104.406L325.529 98.2696M339.763 103.749L346.518 68.6696C346.818 67.1097 345.268 65.8391 343.797 66.44L305.202 82.2121C303.681 82.8335 303.517 84.9218 304.921 85.7736L336.763 105.081C337.954 105.804 339.5 105.117 339.763 103.749Z" stroke="black" stroke-width="2" stroke-linecap="round" stroke-linejoin="round"/>
</svg>
