<svg viewBox="5 0 1024 221" fill="none" xmlns="http://www.w3.org/2000/svg">
  <g filter="url(#a)">
    <path d="M900.616.496C959.092-5.577 1010.81 45.564 1032 73.761V221H265c30.893-33.742 130.674-15.573 188.909-34.332C489.419 175.23 530 138.76 597.5 126c61.786-11.68 122.844 44.381 182.5 25C845.752 129.639 830.136 7.817 900.616.496Z" fill="#FFEB3C"/>
    <path d="M135.384 3.496C76.908-2.577 25.187 48.564 4 76.761V224h767c-30.893-33.742-130.674-15.573-188.909-34.332C546.581 178.23 506 141.76 438.5 129c-61.786-11.68-122.844 44.381-182.5 25-65.752-21.361-50.136-143.184-120.616-150.504Z" fill="#8C52FF"/>
  </g>
</svg>