<svg width="1035" height="656" viewBox="0 0 1035 656" fill="none" xmlns="http://www.w3.org/2000/svg">
<path d="M903.616 435.496C962.092 429.423 1013.81 480.564 1035 508.761V656H268C298.893 622.258 398.674 640.427 456.909 621.668C492.419 610.23 533 573.76 600.5 561C662.286 549.32 723.344 605.381 783 586C848.752 564.639 833.136 442.817 903.616 435.496Z" fill="#FFEB3C"/>
<path d="M1035.28 289.428C1035.28 168.5 972.5 203 951 172.5C923.578 133.599 974.5 81 917.682 51.1609" stroke="black" stroke-dasharray="25 25"/>
<path d="M885.288 25.3124L908.194 39.014L909.365 44.2927C909.759 46.069 907.769 47.406 906.273 46.3697L902.734 43.917M893.546 48.5335L885.383 27.6227C884.805 26.1419 886.102 24.6111 887.657 24.9381L913.143 30.295C914.745 30.6318 915.286 32.6464 914.067 33.7404L896.745 49.2943C895.706 50.2277 894.054 49.8348 893.546 48.5335Z" stroke="#8C52FF" stroke-width="2" stroke-linecap="round" stroke-linejoin="round"/>
<path d="M7 194C38 165 8.4756 135.919 43 120.5C62.164 111.941 108.224 140.095 122.537 102.031" stroke="black" stroke-dasharray="25 25"/>
<path d="M142.004 68.9979L123.912 84.3754L123.75 88.9452C123.685 90.7558 125.869 91.7122 127.156 90.4372L129.742 87.8755M138.975 90.2892L142.8 70.6169C143.103 69.059 141.558 67.7859 140.087 68.3811L118.227 77.2259C116.698 77.8448 116.533 79.9452 117.948 80.7946L135.982 91.6221C137.172 92.3365 138.71 91.6515 138.975 90.2892Z" stroke="#8C52FF" stroke-width="2" stroke-linecap="round" stroke-linejoin="round"/>
<path d="M122.104 466.993C63.0947 460.919 21.3806 483.558 0 511.756V659H774C742.825 625.257 642.133 643.426 583.367 624.667C547.533 613.228 506.582 576.757 438.465 563.997C376.115 552.316 314.5 608.379 254.3 588.997C187.948 567.636 193.228 474.313 122.104 466.993Z" fill="#8C52FF"/>
</svg>
