<svg width="28" height="24" viewBox="0 0 28 24" fill="none" xmlns="http://www.w3.org/2000/svg">
<path d="M24.6709 3.31404L24.7316 3.37389C25.9134 4.56997 26.5 6.11782 26.5 7.66413C26.5 9.23648 25.8936 10.8101 24.6721 12.0139L14.0475 22.4826L15.0542 23.5043L14.0475 22.4826C14.0379 22.4921 14.0239 22.5 14.0004 22.5C13.977 22.5 13.9629 22.4921 13.9533 22.4826L13.9532 22.4825L4.05495 12.7269L4.05481 12.7267L3.33155 12.0141L3.33031 12.0129C2.10617 10.8095 1.5 9.23629 1.5 7.66434C1.5 6.09246 2.10614 4.51941 3.33027 3.31566L3.33027 3.31566L3.33199 3.31396C5.78362 0.895365 9.771 0.895313 12.2229 3.314L12.2235 3.3146L12.9468 4.02724L13.9996 5.0646L15.0523 4.02725L15.7756 3.3146C18.2314 0.894824 22.2191 0.89563 24.6709 3.31404Z" stroke="#E01F64" stroke-width="3"/>
</svg>
