<svg width="1366" height="424" viewBox="0 0 1366 424" fill="none" xmlns="http://www.w3.org/2000/svg">
<path d="M1316.03 148.009C1330.92 131.987 1347.94 125.634 1366.37 140.906V422.194L1093.69 421.602C1092.98 421.484 1093.69 398.266 1093.69 346.379C1093.69 320.147 1135.14 284.148 1146.26 276.498C1162.25 265.502 1202.39 258.407 1242.88 269.404C1302.89 285.698 1268.16 199.507 1316.03 148.009Z" fill="#8C52FF" stroke="black"/>
<path d="M1291.73 175C1318.37 175 1346.29 192.756 1367 210.866V425H866C866 425 940.511 334.502 1015.13 325.568C1093.22 316.218 1187.34 379.901 1232.78 229.332C1246.58 183.64 1263.68 175 1291.73 175Z" fill="#FFEB3C" stroke="black"/>
<circle cx="1015.22" cy="324.112" r="4.5" fill="#8C52FF" stroke="black"/>
<circle cx="1270.37" cy="177.572" r="4.5" fill="#8C52FF" stroke="black"/>
<circle cx="1152" cy="272" r="4.5" fill="#FFEB3C" stroke="black"/>
<circle cx="1342" cy="132" r="4.5" fill="#FFEB3C" stroke="black"/>
<path d="M73.1542 171.283C46.5344 171.283 19.6969 188.993 -1 207.057V420.283H335C335 420.283 286.644 332.931 253 316.5C210 295.5 158.565 330.49 132.052 225.475C121.053 181.909 101.184 171.283 73.1542 171.283Z" fill="#8C52FF" stroke="black"/>
<path d="M130.384 204.496C71.9083 198.423 20.1872 249.564 -1 277.761V425H766C735.107 391.258 635.326 409.427 577.091 390.668C541.581 379.23 505 340.26 437.5 327.5C375.714 315.82 306.865 362.267 247.21 342.886C181.458 321.525 200.864 211.817 130.384 204.496Z" fill="#FFEB3C" stroke="black"/>
<circle cx="428" cy="325" r="4.5" fill="#8C52FF" stroke="black"/>
<circle cx="723" cy="406" r="4.5" fill="#8C52FF" stroke="black"/>
<circle cx="133" cy="204" r="4.5" fill="#8C52FF" stroke="black"/>
<circle cx="77.7822" cy="170.597" r="4.5" fill="#FFEB3C" stroke="black"/>
<circle cx="254" cy="315" r="4.5" fill="#FFEB3C" stroke="black"/>
<path d="M1231.12 231.379C1170.81 174.969 1209.38 139.136 1220.25 129.557C1231.12 119.978 1258.83 83.7904 1220.25 38.3787" stroke="black" stroke-dasharray="25 25"/>
<path d="M1194.67 6.27605L1215.01 23.9529L1215.2 29.421C1215.27 31.2332 1213.08 32.1887 1211.79 30.9102L1208.65 27.7845M1198.63 30.6852L1194.34 8.55124C1194.04 6.99268 1195.58 5.72046 1197.05 6.31777L1221.56 16.2693C1223.09 16.8891 1223.25 18.9851 1221.84 19.8354L1201.62 32.0178C1200.43 32.7351 1198.89 32.0496 1198.63 30.6852Z" stroke="black" stroke-width="2" stroke-linecap="round" stroke-linejoin="round"/>
<path d="M88.6623 172.311C51.1233 95.8805 120.535 93.0497 145.679 98.3575C166.518 102.756 206.237 119.234 220.757 80.3113" stroke="black" stroke-dasharray="25 25"/>
<path d="M246.315 47.5183L225.743 65.4659L225.544 71.0832C225.48 72.897 227.671 73.8515 228.956 72.5697L232.177 69.3561M242.309 72.3374L246.665 49.7758C246.967 48.2165 245.418 46.9452 243.947 47.5445L219.053 57.6883C217.53 58.309 217.366 60.4008 218.773 61.2519L239.311 73.6697C240.501 74.3897 242.045 73.7038 242.309 72.3374Z" stroke="black" stroke-width="2" stroke-linecap="round" stroke-linejoin="round"/>
<line y1="352.5" x2="1366" y2="352.5" stroke="black"/>
<path d="M98 342L98 352L98 362" stroke="black"/>
<path d="M188 342L188 352L188 362" stroke="black"/>
<path d="M278 342L278 352L278 362" stroke="black"/>
<path d="M368 342L368 352L368 362" stroke="black"/>
<path d="M458 342L458 352L458 362" stroke="black"/>
<path d="M548 342L548 352L548 362" stroke="black"/>
<path d="M638 342L638 352L638 362" stroke="black"/>
<path d="M728 342L728 352L728 362" stroke="black"/>
<path d="M818 342L818 352L818 362" stroke="black"/>
<path d="M908 342L908 352L908 362" stroke="black"/>
<path d="M998 342L998 352L998 362" stroke="black"/>
<path d="M1088 342L1088 352L1088 362" stroke="black"/>
<path d="M1178 342L1178 352L1178 362" stroke="black"/>
<path d="M1268 342L1268 352L1268 362" stroke="black"/>
<path d="M98.656 394V383.44L99.344 384.192H96.128V382.8H100.24V394H98.656Z" fill="black"/>
<path d="M184.592 394V392.912L189.152 388.512C189.557 388.128 189.856 387.792 190.048 387.504C190.251 387.205 190.384 386.933 190.448 386.688C190.523 386.432 190.56 386.187 190.56 385.952C190.56 385.376 190.357 384.923 189.952 384.592C189.547 384.261 188.955 384.096 188.176 384.096C187.579 384.096 187.04 384.197 186.56 384.4C186.08 384.592 185.664 384.896 185.312 385.312L184.224 384.368C184.651 383.824 185.221 383.408 185.936 383.12C186.661 382.821 187.456 382.672 188.32 382.672C189.099 382.672 189.776 382.8 190.352 383.056C190.928 383.301 191.371 383.659 191.68 384.128C192 384.597 192.16 385.152 192.16 385.792C192.16 386.155 192.112 386.512 192.016 386.864C191.92 387.216 191.739 387.589 191.472 387.984C191.205 388.379 190.821 388.821 190.32 389.312L186.256 393.232L185.872 392.608H192.64V394H184.592Z" fill="black"/>
<path d="M278.192 394.128C277.403 394.128 276.635 394.005 275.888 393.76C275.152 393.515 274.549 393.184 274.08 392.768L274.816 391.504C275.189 391.856 275.675 392.144 276.272 392.368C276.869 392.592 277.509 392.704 278.192 392.704C279.024 392.704 279.669 392.528 280.128 392.176C280.597 391.813 280.832 391.328 280.832 390.72C280.832 390.133 280.608 389.664 280.16 389.312C279.723 388.949 279.024 388.768 278.064 388.768H277.168V387.648L280.496 383.552L280.72 384.192H274.592V382.8H281.984V383.888L278.672 387.968L277.84 387.472H278.368C279.723 387.472 280.736 387.776 281.408 388.384C282.091 388.992 282.432 389.765 282.432 390.704C282.432 391.333 282.277 391.909 281.968 392.432C281.659 392.955 281.189 393.371 280.56 393.68C279.941 393.979 279.152 394.128 278.192 394.128Z" fill="black"/>
<path d="M364.608 391.248V390.128L370.336 382.8H372.064L366.384 390.128L365.568 389.872H374.512V391.248H364.608ZM370.832 394V391.248L370.88 389.872V387.44H372.384V394H370.832Z" fill="black"/>
<path d="M458.384 394.128C457.595 394.128 456.827 394.005 456.08 393.76C455.344 393.515 454.741 393.184 454.272 392.768L455.008 391.504C455.381 391.856 455.867 392.144 456.464 392.368C457.061 392.592 457.696 392.704 458.368 392.704C459.221 392.704 459.877 392.523 460.336 392.16C460.795 391.797 461.024 391.312 461.024 390.704C461.024 390.288 460.923 389.925 460.72 389.616C460.517 389.307 460.165 389.072 459.664 388.912C459.173 388.741 458.496 388.656 457.632 388.656H455.088L455.68 382.8H462V384.192H456.272L457.104 383.408L456.64 388.032L455.808 387.264H457.968C459.088 387.264 459.989 387.408 460.672 387.696C461.355 387.984 461.851 388.384 462.16 388.896C462.469 389.397 462.624 389.979 462.624 390.64C462.624 391.28 462.469 391.867 462.16 392.4C461.851 392.923 461.381 393.344 460.752 393.664C460.133 393.973 459.344 394.128 458.384 394.128Z" fill="black"/>
<path d="M549.472 394.128C548.48 394.128 547.632 393.909 546.928 393.472C546.224 393.035 545.685 392.405 545.312 391.584C544.949 390.752 544.768 389.739 544.768 388.544C544.768 387.275 544.992 386.203 545.44 385.328C545.888 384.453 546.512 383.792 547.312 383.344C548.112 382.896 549.029 382.672 550.064 382.672C550.597 382.672 551.104 382.725 551.584 382.832C552.075 382.939 552.496 383.104 552.848 383.328L552.24 384.576C551.952 384.373 551.621 384.235 551.248 384.16C550.885 384.085 550.501 384.048 550.096 384.048C548.955 384.048 548.048 384.405 547.376 385.12C546.704 385.824 546.368 386.875 546.368 388.272C546.368 388.496 546.379 388.763 546.4 389.072C546.421 389.381 546.475 389.685 546.56 389.984L546.016 389.44C546.176 388.949 546.427 388.539 546.768 388.208C547.12 387.867 547.536 387.616 548.016 387.456C548.507 387.285 549.035 387.2 549.6 387.2C550.347 387.2 551.008 387.339 551.584 387.616C552.16 387.893 552.613 388.288 552.944 388.8C553.275 389.301 553.44 389.899 553.44 390.592C553.44 391.307 553.264 391.931 552.912 392.464C552.56 392.997 552.085 393.408 551.488 393.696C550.891 393.984 550.219 394.128 549.472 394.128ZM549.408 392.832C549.899 392.832 550.325 392.741 550.688 392.56C551.061 392.379 551.355 392.128 551.568 391.808C551.781 391.477 551.888 391.093 551.888 390.656C551.888 389.995 551.659 389.472 551.2 389.088C550.741 388.693 550.117 388.496 549.328 388.496C548.816 388.496 548.368 388.592 547.984 388.784C547.6 388.976 547.296 389.237 547.072 389.568C546.859 389.888 546.752 390.256 546.752 390.672C546.752 391.056 546.853 391.413 547.056 391.744C547.259 392.064 547.557 392.325 547.952 392.528C548.347 392.731 548.832 392.832 549.408 392.832Z" fill="black"/>
<path d="M636.704 394L641.456 383.472L641.872 384.192H635.216L636.016 383.408V386.192H634.48V382.8H642.928V383.888L638.4 394H636.704Z" fill="black"/>
<path d="M729.136 394.128C728.229 394.128 727.445 393.995 726.784 393.728C726.123 393.461 725.611 393.083 725.248 392.592C724.885 392.091 724.704 391.504 724.704 390.832C724.704 390.171 724.875 389.611 725.216 389.152C725.568 388.683 726.075 388.331 726.736 388.096C727.397 387.851 728.197 387.728 729.136 387.728C730.075 387.728 730.875 387.851 731.536 388.096C732.208 388.331 732.72 388.683 733.072 389.152C733.424 389.621 733.6 390.181 733.6 390.832C733.6 391.504 733.419 392.091 733.056 392.592C732.693 393.083 732.176 393.461 731.504 393.728C730.832 393.995 730.043 394.128 729.136 394.128ZM729.136 392.832C730.032 392.832 730.731 392.651 731.232 392.288C731.744 391.915 732 391.413 732 390.784C732 390.165 731.744 389.68 731.232 389.328C730.731 388.965 730.032 388.784 729.136 388.784C728.251 388.784 727.557 388.965 727.056 389.328C726.555 389.68 726.304 390.165 726.304 390.784C726.304 391.413 726.555 391.915 727.056 392.288C727.557 392.651 728.251 392.832 729.136 392.832ZM729.136 388.592C728.283 388.592 727.557 388.48 726.96 388.256C726.363 388.021 725.904 387.691 725.584 387.264C725.264 386.827 725.104 386.309 725.104 385.712C725.104 385.083 725.269 384.544 725.6 384.096C725.941 383.637 726.416 383.285 727.024 383.04C727.632 382.795 728.336 382.672 729.136 382.672C729.947 382.672 730.656 382.795 731.264 383.04C731.872 383.285 732.347 383.637 732.688 384.096C733.029 384.544 733.2 385.083 733.2 385.712C733.2 386.309 733.04 386.827 732.72 387.264C732.4 387.691 731.936 388.021 731.328 388.256C730.72 388.48 729.989 388.592 729.136 388.592ZM729.136 387.568C729.915 387.568 730.523 387.408 730.96 387.088C731.408 386.768 731.632 386.331 731.632 385.776C731.632 385.211 731.403 384.768 730.944 384.448C730.485 384.128 729.883 383.968 729.136 383.968C728.389 383.968 727.792 384.128 727.344 384.448C726.907 384.768 726.688 385.211 726.688 385.776C726.688 386.331 726.901 386.768 727.328 387.088C727.765 387.408 728.368 387.568 729.136 387.568Z" fill="black"/>
<path d="M818.4 382.672C819.413 382.672 820.267 382.891 820.96 383.328C821.664 383.765 822.197 384.4 822.56 385.232C822.923 386.053 823.104 387.061 823.104 388.256C823.104 389.525 822.88 390.597 822.432 391.472C821.984 392.347 821.365 393.008 820.576 393.456C819.787 393.904 818.864 394.128 817.808 394.128C817.285 394.128 816.779 394.075 816.288 393.968C815.808 393.861 815.387 393.696 815.024 393.472L815.632 392.224C815.931 392.416 816.261 392.555 816.624 392.64C816.997 392.715 817.387 392.752 817.792 392.752C818.923 392.752 819.824 392.4 820.496 391.696C821.168 390.981 821.504 389.925 821.504 388.528C821.504 388.304 821.493 388.037 821.472 387.728C821.451 387.419 821.403 387.115 821.328 386.816L821.856 387.36C821.707 387.851 821.456 388.267 821.104 388.608C820.763 388.939 820.347 389.189 819.856 389.36C819.376 389.52 818.848 389.6 818.272 389.6C817.536 389.6 816.88 389.461 816.304 389.184C815.728 388.907 815.275 388.517 814.944 388.016C814.613 387.504 814.448 386.901 814.448 386.208C814.448 385.483 814.619 384.859 814.96 384.336C815.312 383.803 815.787 383.392 816.384 383.104C816.992 382.816 817.664 382.672 818.4 382.672ZM818.464 383.968C817.984 383.968 817.557 384.059 817.184 384.24C816.811 384.421 816.517 384.672 816.304 384.992C816.101 385.312 816 385.696 816 386.144C816 386.805 816.229 387.333 816.688 387.728C817.147 388.112 817.765 388.304 818.544 388.304C819.056 388.304 819.504 388.208 819.888 388.016C820.283 387.824 820.587 387.563 820.8 387.232C821.024 386.901 821.136 386.533 821.136 386.128C821.136 385.733 821.035 385.376 820.832 385.056C820.629 384.736 820.331 384.475 819.936 384.272C819.541 384.069 819.051 383.968 818.464 383.968Z" fill="black"/>
<path d="M903.656 394V383.44L904.344 384.192H901.128V382.8H905.24V394H903.656ZM912.266 394.128C911.391 394.128 910.607 393.904 909.914 393.456C909.231 393.008 908.687 392.357 908.282 391.504C907.887 390.651 907.69 389.616 907.69 388.4C907.69 387.184 907.887 386.149 908.282 385.296C908.687 384.443 909.231 383.792 909.914 383.344C910.607 382.896 911.391 382.672 912.266 382.672C913.13 382.672 913.909 382.896 914.602 383.344C915.295 383.792 915.839 384.443 916.234 385.296C916.629 386.149 916.826 387.184 916.826 388.4C916.826 389.616 916.629 390.651 916.234 391.504C915.839 392.357 915.295 393.008 914.602 393.456C913.909 393.904 913.13 394.128 912.266 394.128ZM912.266 392.704C912.853 392.704 913.365 392.544 913.802 392.224C914.25 391.904 914.597 391.424 914.842 390.784C915.098 390.144 915.226 389.349 915.226 388.4C915.226 387.451 915.098 386.656 914.842 386.016C914.597 385.376 914.25 384.896 913.802 384.576C913.365 384.256 912.853 384.096 912.266 384.096C911.679 384.096 911.162 384.256 910.714 384.576C910.266 384.896 909.914 385.376 909.658 386.016C909.413 386.656 909.29 387.451 909.29 388.4C909.29 389.349 909.413 390.144 909.658 390.784C909.914 391.424 910.266 391.904 910.714 392.224C911.162 392.544 911.679 392.704 912.266 392.704Z" fill="black"/>
<path d="M995.656 394V383.44L996.344 384.192H993.128V382.8H997.24V394H995.656ZM1001.58 394V383.44L1002.27 384.192H999.05V382.8H1003.16V394H1001.58Z" fill="black"/>
<path d="M1083.66 394V383.44L1084.34 384.192H1081.13V382.8H1085.24V394H1083.66ZM1087.51 394V392.912L1092.07 388.512C1092.48 388.128 1092.78 387.792 1092.97 387.504C1093.17 387.205 1093.31 386.933 1093.37 386.688C1093.44 386.432 1093.48 386.187 1093.48 385.952C1093.48 385.376 1093.28 384.923 1092.87 384.592C1092.47 384.261 1091.88 384.096 1091.1 384.096C1090.5 384.096 1089.96 384.197 1089.48 384.4C1089 384.592 1088.59 384.896 1088.23 385.312L1087.15 384.368C1087.57 383.824 1088.14 383.408 1088.86 383.12C1089.58 382.821 1090.38 382.672 1091.24 382.672C1092.02 382.672 1092.7 382.8 1093.27 383.056C1093.85 383.301 1094.29 383.659 1094.6 384.128C1094.92 384.597 1095.08 385.152 1095.08 385.792C1095.08 386.155 1095.03 386.512 1094.94 386.864C1094.84 387.216 1094.66 387.589 1094.39 387.984C1094.13 388.379 1093.74 388.821 1093.24 389.312L1089.18 393.232L1088.79 392.608H1095.56V394H1087.51Z" fill="black"/>
<path d="M1173.66 394V383.44L1174.34 384.192H1171.13V382.8H1175.24V394H1173.66ZM1181.11 394.128C1180.32 394.128 1179.56 394.005 1178.81 393.76C1178.07 393.515 1177.47 393.184 1177 392.768L1177.74 391.504C1178.11 391.856 1178.6 392.144 1179.19 392.368C1179.79 392.592 1180.43 392.704 1181.11 392.704C1181.95 392.704 1182.59 392.528 1183.05 392.176C1183.52 391.813 1183.75 391.328 1183.75 390.72C1183.75 390.133 1183.53 389.664 1183.08 389.312C1182.64 388.949 1181.95 388.768 1180.99 388.768H1180.09V387.648L1183.42 383.552L1183.64 384.192H1177.51V382.8H1184.91V383.888L1181.59 387.968L1180.76 387.472H1181.29C1182.64 387.472 1183.66 387.776 1184.33 388.384C1185.01 388.992 1185.35 389.765 1185.35 390.704C1185.35 391.333 1185.2 391.909 1184.89 392.432C1184.58 392.955 1184.11 393.371 1183.48 393.68C1182.86 393.979 1182.07 394.128 1181.11 394.128Z" fill="black"/>
<path d="M1263.66 394V383.44L1264.34 384.192H1261.13V382.8H1265.24V394H1263.66ZM1267.53 391.248V390.128L1273.26 382.8H1274.99L1269.31 390.128L1268.49 389.872H1277.43V391.248H1267.53ZM1273.75 394V391.248L1273.8 389.872V387.44H1275.31V394H1273.75Z" fill="black"/>
</svg>
