<svg width="1920" height="596" fill="none" xmlns="http://www.w3.org/2000/svg"><path d="M1850 208c21-22.555 45-31.5 71-10v396l-384.55-.832c-1.01-.167-.01-32.854 0-105.9 0-36.93 58.45-87.61 74.14-98.379 22.54-15.481 79.15-25.469 136.26-9.988C1831.47 401.84 1782.5 280.5 1850 208Z" fill="#8C52FF" stroke="#000"/><path d="M1814.92 244c37.54 0 76.89 25 106.08 50.5V596h-706s109-119 210.15-140c108.51-22.529 242.67 76.5 306.72-135.5 19.43-64.335 43.53-76.5 83.05-76.5Z" fill="#FFEB3C" stroke="#000"/><circle cx="1426.5" cy="456.5" r="7" fill="#8C52FF" stroke="#000"/><circle cx="1785.5" cy="247.5" r="7" fill="#8C52FF" stroke="#000"/><circle cx="1619.5" cy="381.5" r="7" fill="#FFEB3C" stroke="#000"/><circle cx="1888.5" cy="185.5" r="7" fill="#FFEB3C" stroke="#000"/><path d="M103.61 241C66.057 241 28.198 265.965-1 291.428V592h474s-68.572-139.301-120.127-150.785c-50.417-11.23-128.773 24.21-166.175-123.824C171.182 255.979 143.152 241 103.61 241Z" fill="#8C52FF" stroke="#000"/><path d="M184 284.701c-82.339-8.575-155.167 63.625-185 103.433V596h1080c-43.5-47.636-184-21.986-266-48.469-50-16.148-110-120.922-197-137.411-87-16.489-183.5 97.315-267.5 69.955-92.584-30.157-65.258-185.04-164.5-195.374Z" fill="#FFEB3C" stroke="#000"/><circle cx="608.5" cy="409.5" r="7" fill="#8C52FF" stroke="#000"/><circle cx="1012.5" cy="567.5" r="7" fill="#8C52FF" stroke="#000"/><circle cx="188.5" cy="284.5" r="7" fill="#8C52FF" stroke="#000"/><circle cx="108.5" cy="240.5" r="7" fill="#FFEB3C" stroke="#000"/><circle cx="355.5" cy="442.5" r="7" fill="#FFEB3C" stroke="#000"/><path stroke="#000" d="M1 490.5h1919M106 480v20M196 480v20M286 480v20M376 480v20M466 480v20M556 480v20M646 480v20M736 480v20M826 480v20M916 480v20M1006 480v20M1096 480v20M1186 480v20M1276 480v20M1366 480v20M1456 480v20M1546 480v20M1636 480v20M1726 480v20M1816 480v20"/><path d="M105.602 532v-10.56l.688.752h-3.216V520.8h4.112V532h-1.584ZM191.492 532v-1.088l4.56-4.4c.406-.384.704-.72.896-1.008.203-.299.336-.571.4-.816.075-.256.112-.501.112-.736 0-.576-.202-1.029-.608-1.36-.405-.331-.997-.496-1.776-.496-.597 0-1.136.101-1.616.304-.48.192-.896.496-1.248.912l-1.088-.944c.427-.544.998-.96 1.712-1.248a6.198 6.198 0 0 1 2.384-.448c.779 0 1.456.128 2.032.384.576.245 1.019.603 1.328 1.072.32.469.48 1.024.48 1.664 0 .363-.048.72-.144 1.072-.096.352-.277.725-.544 1.12-.266.395-.65.837-1.152 1.328l-4.064 3.92-.384-.624h6.768V532h-8.048ZM285.046 532.128c-.79 0-1.558-.123-2.304-.368-.736-.245-1.339-.576-1.808-.992l.736-1.264c.373.352.858.64 1.456.864a5.42 5.42 0 0 0 1.92.336c.832 0 1.477-.176 1.936-.528.469-.363.704-.848.704-1.456 0-.587-.224-1.056-.672-1.408-.438-.363-1.136-.544-2.096-.544h-.896v-1.12l3.328-4.096.224.64h-6.128V520.8h7.392v1.088l-3.312 4.08-.832-.496h.528c1.354 0 2.368.304 3.04.912.682.608 1.024 1.381 1.024 2.32 0 .629-.155 1.205-.464 1.728-.31.523-.779.939-1.408 1.248-.619.299-1.408.448-2.368.448ZM371.415 529.248v-1.12l5.728-7.328h1.728l-5.68 7.328-.816-.256h8.944v1.376h-9.904Zm6.224 2.752v-2.752l.048-1.376v-2.432h1.504V532h-1.552ZM465.144 532.128c-.79 0-1.558-.123-2.304-.368-.736-.245-1.339-.576-1.808-.992l.736-1.264c.373.352.858.64 1.456.864a5.376 5.376 0 0 0 1.904.336c.853 0 1.509-.181 1.968-.544.458-.363.688-.848.688-1.456 0-.416-.102-.779-.304-1.088-.203-.309-.555-.544-1.056-.704-.491-.171-1.168-.256-2.032-.256h-2.544l.592-5.856h6.32v1.392h-5.728l.832-.784-.464 4.624-.832-.768h2.16c1.12 0 2.021.144 2.704.432.682.288 1.178.688 1.488 1.2.309.501.464 1.083.464 1.744 0 .64-.155 1.227-.464 1.76-.31.523-.779.944-1.408 1.264-.619.309-1.408.464-2.368.464ZM556.185 532.128c-.992 0-1.84-.219-2.544-.656-.704-.437-1.243-1.067-1.616-1.888-.363-.832-.544-1.845-.544-3.04 0-1.269.224-2.341.672-3.216.448-.875 1.072-1.536 1.872-1.984.8-.448 1.717-.672 2.752-.672.533 0 1.04.053 1.52.16a3.87 3.87 0 0 1 1.264.496l-.608 1.248a2.583 2.583 0 0 0-.992-.416 5.685 5.685 0 0 0-1.152-.112c-1.141 0-2.048.357-2.72 1.072-.672.704-1.008 1.755-1.008 3.152 0 .224.011.491.032.8.021.309.075.613.16.912l-.544-.544c.16-.491.411-.901.752-1.232a3.242 3.242 0 0 1 1.248-.752 4.783 4.783 0 0 1 1.584-.256c.747 0 1.408.139 1.984.416a3.268 3.268 0 0 1 1.36 1.184c.331.501.496 1.099.496 1.792 0 .715-.176 1.339-.528 1.872a3.484 3.484 0 0 1-1.424 1.232c-.597.288-1.269.432-2.016.432Zm-.064-1.296c.491 0 .917-.091 1.28-.272a2.17 2.17 0 0 0 .88-.752c.213-.331.32-.715.32-1.152 0-.661-.229-1.184-.688-1.568-.459-.395-1.083-.592-1.872-.592-.512 0-.96.096-1.344.288a2.338 2.338 0 0 0-.912.784c-.213.32-.32.688-.32 1.104 0 .384.101.741.304 1.072.203.32.501.581.896.784.395.203.88.304 1.456.304ZM643.37 532l4.752-10.528.416.72h-6.656l.8-.784v2.784h-1.536V520.8h8.448v1.088L645.066 532h-1.696ZM735.755 532.128c-.907 0-1.691-.133-2.352-.4-.661-.267-1.173-.645-1.536-1.136-.363-.501-.544-1.088-.544-1.76 0-.661.171-1.221.512-1.68.352-.469.859-.821 1.52-1.056.661-.245 1.461-.368 2.4-.368.939 0 1.739.123 2.4.368.672.235 1.184.587 1.536 1.056.352.469.528 1.029.528 1.68 0 .672-.181 1.259-.544 1.76-.363.491-.88.869-1.552 1.136-.672.267-1.461.4-2.368.4Zm0-1.296c.896 0 1.595-.181 2.096-.544.512-.373.768-.875.768-1.504 0-.619-.256-1.104-.768-1.456-.501-.363-1.2-.544-2.096-.544-.885 0-1.579.181-2.08.544-.501.352-.752.837-.752 1.456 0 .629.251 1.131.752 1.504.501.363 1.195.544 2.08.544Zm0-4.24c-.853 0-1.579-.112-2.176-.336-.597-.235-1.056-.565-1.376-.992-.32-.437-.48-.955-.48-1.552 0-.629.165-1.168.496-1.616.341-.459.816-.811 1.424-1.056s1.312-.368 2.112-.368c.811 0 1.52.123 2.128.368.608.245 1.083.597 1.424 1.056.341.448.512.987.512 1.616 0 .597-.16 1.115-.48 1.552-.32.427-.784.757-1.392.992-.608.224-1.339.336-2.192.336Zm0-1.024c.779 0 1.387-.16 1.824-.48.448-.32.672-.757.672-1.312 0-.565-.229-1.008-.688-1.328-.459-.32-1.061-.48-1.808-.48-.747 0-1.344.16-1.792.48-.437.32-.656.763-.656 1.328 0 .555.213.992.64 1.312.437.32 1.04.48 1.808.48ZM824.972 520.672c1.014 0 1.867.219 2.56.656.704.437 1.238 1.072 1.6 1.904.363.821.544 1.829.544 3.024 0 1.269-.224 2.341-.672 3.216-.448.875-1.066 1.536-1.856 1.984-.789.448-1.712.672-2.768.672a7.12 7.12 0 0 1-1.52-.16 4.076 4.076 0 0 1-1.264-.496l.608-1.248c.299.192.63.331.992.416.374.075.763.112 1.168.112 1.131 0 2.032-.352 2.704-1.056.672-.715 1.008-1.771 1.008-3.168 0-.224-.01-.491-.032-.8a5.186 5.186 0 0 0-.144-.912l.528.544c-.149.491-.4.907-.752 1.248a3.338 3.338 0 0 1-1.248.752c-.48.16-1.008.24-1.584.24-.736 0-1.392-.139-1.968-.416a3.312 3.312 0 0 1-1.36-1.168c-.33-.512-.496-1.115-.496-1.808 0-.725.171-1.349.512-1.872a3.484 3.484 0 0 1 1.424-1.232 4.65 4.65 0 0 1 2.016-.432Zm.064 1.296a2.9 2.9 0 0 0-1.28.272 2.176 2.176 0 0 0-.88.752c-.202.32-.304.704-.304 1.152 0 .661.23 1.189.688 1.584.459.384 1.078.576 1.856.576.512 0 .96-.096 1.344-.288.395-.192.699-.453.912-.784.224-.331.336-.699.336-1.104 0-.395-.101-.752-.304-1.072-.202-.32-.501-.581-.896-.784-.394-.203-.885-.304-1.472-.304ZM910.183 532v-10.56l.688.752h-3.216V520.8h4.112V532h-1.584Zm8.61.128c-.874 0-1.658-.224-2.352-.672-.682-.448-1.226-1.099-1.632-1.952-.394-.853-.592-1.888-.592-3.104 0-1.216.198-2.251.592-3.104.406-.853.95-1.504 1.632-1.952.694-.448 1.478-.672 2.352-.672a4.21 4.21 0 0 1 2.336.672c.694.448 1.238 1.099 1.632 1.952.395.853.592 1.888.592 3.104 0 1.216-.197 2.251-.592 3.104-.394.853-.938 1.504-1.632 1.952a4.21 4.21 0 0 1-2.336.672Zm0-1.424c.587 0 1.099-.16 1.536-.48.448-.32.795-.8 1.04-1.44.256-.64.384-1.435.384-2.384 0-.949-.128-1.744-.384-2.384-.245-.64-.592-1.12-1.04-1.44-.437-.32-.949-.48-1.536-.48-.586 0-1.104.16-1.552.48-.448.32-.8.8-1.056 1.44-.245.64-.368 1.435-.368 2.384 0 .949.123 1.744.368 2.384.256.64.608 1.12 1.056 1.44.448.32.966.48 1.552.48ZM1002.14 532v-10.56l.68.752h-3.213V520.8h4.113V532h-1.58Zm5.92 0v-10.56l.69.752h-3.22V520.8h4.11V532h-1.58ZM1090.09 532v-10.56l.69.752h-3.22V520.8h4.11V532h-1.58Zm3.86 0v-1.088l4.56-4.4c.4-.384.7-.72.89-1.008.21-.299.34-.571.4-.816.08-.256.12-.501.12-.736 0-.576-.21-1.029-.61-1.36-.41-.331-1-.496-1.78-.496-.6 0-1.13.101-1.61.304-.48.192-.9.496-1.25.912l-1.09-.944c.43-.544 1-.96 1.71-1.248a6.221 6.221 0 0 1 2.39-.448c.77 0 1.45.128 2.03.384.57.245 1.02.603 1.33 1.072.32.469.48 1.024.48 1.664 0 .363-.05.72-.15 1.072-.09.352-.28.725-.54 1.12-.27.395-.65.837-1.15 1.328l-4.07 3.92-.38-.624h6.77V532h-8.05ZM1180.04 532v-10.56l.69.752h-3.22V520.8h4.12V532h-1.59Zm7.46.128c-.79 0-1.56-.123-2.3-.368-.74-.245-1.34-.576-1.81-.992l.73-1.264c.38.352.86.64 1.46.864.6.224 1.24.336 1.92.336.83 0 1.48-.176 1.94-.528.47-.363.7-.848.7-1.456 0-.587-.22-1.056-.67-1.408-.44-.363-1.14-.544-2.1-.544h-.89v-1.12l3.32-4.096.23.64h-6.13V520.8h7.39v1.088l-3.31 4.08-.83-.496h.53c1.35 0 2.36.304 3.04.912.68.608 1.02 1.381 1.02 2.32 0 .629-.15 1.205-.46 1.728-.31.523-.78.939-1.41 1.248-.62.299-1.41.448-2.37.448ZM1270 532v-10.56l.68.752h-3.21V520.8h4.11V532H1270Zm3.87-2.752v-1.12l5.73-7.328h1.73l-5.68 7.328-.82-.256h8.94v1.376h-9.9Zm6.22 2.752v-2.752l.05-1.376v-2.432h1.51V532h-1.56ZM1359.95 532v-10.56l.69.752h-3.22V520.8h4.11V532h-1.58Zm7.65.128c-.79 0-1.56-.123-2.31-.368-.73-.245-1.33-.576-1.8-.992l.73-1.264c.38.352.86.64 1.46.864.6.224 1.23.336 1.9.336.86 0 1.51-.181 1.97-.544.46-.363.69-.848.69-1.456 0-.416-.1-.779-.31-1.088-.2-.309-.55-.544-1.05-.704-.49-.171-1.17-.256-2.03-.256h-2.55l.59-5.856h6.32v1.392h-5.72l.83-.784-.47 4.624-.83-.768h2.16c1.12 0 2.02.144 2.71.432.68.288 1.18.688 1.48 1.2.31.501.47 1.083.47 1.744 0 .64-.16 1.227-.47 1.76-.3.523-.77.944-1.4 1.264-.62.309-1.41.464-2.37.464ZM1449.9 532v-10.56l.69.752h-3.22V520.8h4.12V532h-1.59Zm8.74.128c-.99 0-1.84-.219-2.54-.656-.71-.437-1.25-1.067-1.62-1.888-.36-.832-.54-1.845-.54-3.04 0-1.269.22-2.341.67-3.216.45-.875 1.07-1.536 1.87-1.984.8-.448 1.72-.672 2.75-.672.54 0 1.04.053 1.52.16.49.107.91.272 1.27.496l-.61 1.248a2.607 2.607 0 0 0-.99-.416 5.78 5.78 0 0 0-1.16-.112c-1.14 0-2.04.357-2.72 1.072-.67.704-1 1.755-1 3.152 0 .224.01.491.03.8.02.309.07.613.16.912l-.55-.544c.16-.491.41-.901.76-1.232.35-.341.76-.592 1.24-.752a4.794 4.794 0 0 1 1.59-.256c.74 0 1.41.139 1.98.416.58.277 1.03.672 1.36 1.184.33.501.5 1.099.5 1.792 0 .715-.18 1.339-.53 1.872-.35.533-.83.944-1.42 1.232-.6.288-1.27.432-2.02.432Zm-.06-1.296c.49 0 .91-.091 1.28-.272.37-.181.66-.432.88-.752.21-.331.32-.715.32-1.152 0-.661-.23-1.184-.69-1.568-.46-.395-1.08-.592-1.87-.592-.52 0-.96.096-1.35.288-.38.192-.69.453-.91.784-.21.32-.32.688-.32 1.104 0 .384.1.741.3 1.072.21.32.51.581.9.784.39.203.88.304 1.46.304ZM1539.86 532v-10.56l.68.752h-3.21V520.8h4.11V532h-1.58Zm5.97 0 4.75-10.528.41.72h-6.65l.8-.784v2.784h-1.54V520.8h8.45v1.088L1547.52 532h-1.69ZM1629.81 532v-10.56l.69.752h-3.22V520.8h4.11V532h-1.58Zm8.4.128c-.91 0-1.69-.133-2.35-.4-.66-.267-1.18-.645-1.54-1.136-.36-.501-.54-1.088-.54-1.76 0-.661.17-1.221.51-1.68.35-.469.86-.821 1.52-1.056.66-.245 1.46-.368 2.4-.368s1.74.123 2.4.368c.67.235 1.18.587 1.54 1.056.35.469.52 1.029.52 1.68 0 .672-.18 1.259-.54 1.76-.36.491-.88.869-1.55 1.136-.67.267-1.46.4-2.37.4Zm0-1.296c.9 0 1.59-.181 2.1-.544.51-.373.76-.875.76-1.504 0-.619-.25-1.104-.76-1.456-.51-.363-1.2-.544-2.1-.544-.89 0-1.58.181-2.08.544-.5.352-.75.837-.75 1.456 0 .629.25 1.131.75 1.504.5.363 1.19.544 2.08.544Zm0-4.24c-.85 0-1.58-.112-2.18-.336-.59-.235-1.05-.565-1.37-.992-.32-.437-.48-.955-.48-1.552 0-.629.16-1.168.49-1.616.35-.459.82-.811 1.43-1.056s1.31-.368 2.11-.368c.81 0 1.52.123 2.13.368.61.245 1.08.597 1.42 1.056.34.448.51.987.51 1.616 0 .597-.16 1.115-.48 1.552-.32.427-.78.757-1.39.992-.61.224-1.34.336-2.19.336Zm0-1.024c.78 0 1.39-.16 1.82-.48.45-.32.68-.757.68-1.312 0-.565-.23-1.008-.69-1.328-.46-.32-1.06-.48-1.81-.48s-1.34.16-1.79.48c-.44.32-.66.763-.66 1.328 0 .555.22.992.64 1.312.44.32 1.04.48 1.81.48ZM1720.76 532v-10.56l.69.752h-3.22V520.8h4.12V532h-1.59Zm7.67-11.328c1.01 0 1.86.219 2.56.656.7.437 1.23 1.072 1.6 1.904.36.821.54 1.829.54 3.024 0 1.269-.22 2.341-.67 3.216-.45.875-1.07 1.536-1.86 1.984-.79.448-1.71.672-2.76.672a7.06 7.06 0 0 1-1.52-.16 4.082 4.082 0 0 1-1.27-.496l.61-1.248c.3.192.63.331.99.416.37.075.76.112 1.17.112 1.13 0 2.03-.352 2.7-1.056.68-.715 1.01-1.771 1.01-3.168 0-.224-.01-.491-.03-.8a5.58 5.58 0 0 0-.14-.912l.52.544c-.15.491-.4.907-.75 1.248-.34.331-.76.581-1.25.752-.48.16-1 .24-1.58.24-.74 0-1.39-.139-1.97-.416a3.344 3.344 0 0 1-1.36-1.168c-.33-.512-.49-1.115-.49-1.808 0-.725.17-1.349.51-1.872.35-.533.82-.944 1.42-1.232a4.661 4.661 0 0 1 2.02-.432Zm.06 1.296c-.48 0-.91.091-1.28.272a2.17 2.17 0 0 0-.88.752c-.2.32-.3.704-.3 1.152 0 .661.23 1.189.69 1.584.45.384 1.07.576 1.85.576.51 0 .96-.096 1.35-.288.39-.192.69-.453.91-.784.22-.331.33-.699.33-1.104 0-.395-.1-.752-.3-1.072-.2-.32-.5-.581-.9-.784-.39-.203-.88-.304-1.47-.304ZM1805.65 532v-1.088l4.56-4.4c.41-.384.71-.72.9-1.008.2-.299.33-.571.4-.816.07-.256.11-.501.11-.736 0-.576-.2-1.029-.61-1.36-.4-.331-1-.496-1.77-.496-.6 0-1.14.101-1.62.304-.48.192-.9.496-1.25.912l-1.09-.944c.43-.544 1-.96 1.72-1.248.72-.299 1.52-.448 2.38-.448.78 0 1.46.128 2.03.384.58.245 1.02.603 1.33 1.072.32.469.48 1.024.48 1.664 0 .363-.05.72-.14 1.072-.1.352-.28.725-.55 1.12-.27.395-.65.837-1.15 1.328l-4.06 3.92-.39-.624h6.77V532h-8.05Zm13.93.128c-.88 0-1.66-.224-2.36-.672-.68-.448-1.22-1.099-1.63-1.952-.39-.853-.59-1.888-.59-3.104 0-1.216.2-2.251.59-3.104.41-.853.95-1.504 1.63-1.952.7-.448 1.48-.672 2.36-.672.86 0 1.64.224 2.33.672.69.448 1.24 1.099 1.63 1.952.4.853.6 1.888.6 3.104 0 1.216-.2 2.251-.6 3.104-.39.853-.94 1.504-1.63 1.952-.69.448-1.47.672-2.33.672Zm0-1.424c.58 0 1.09-.16 1.53-.48.45-.32.8-.8 1.04-1.44.26-.64.39-1.435.39-2.384 0-.949-.13-1.744-.39-2.384-.24-.64-.59-1.12-1.04-1.44-.44-.32-.95-.48-1.53-.48-.59 0-1.11.16-1.56.48-.44.32-.8.8-1.05 1.44-.25.64-.37 1.435-.37 2.384 0 .949.12 1.744.37 2.384.25.64.61 1.12 1.05 1.44.45.32.97.48 1.56.48Z" fill="#000"/><path d="M1730.38 326c-85.66-79.5-30.88-130-15.44-143.5s54.78-64.5 0-128.5" stroke="#000" stroke-dasharray="25 25"/><path d="m1677.59 9 29.27 25.7.36 10.21c.06 1.817-2.14 2.77-3.42 1.481l-6.1-6.121m-14.18 5.472-6.73-35.07c-.3-1.56 1.25-2.83 2.72-2.227l38.45 15.768c1.52.622 1.69 2.706.28 3.559l-31.72 19.302a1.996 1.996 0 0 1-3-1.332Z" stroke="#000" stroke-width="2" stroke-linecap="round" stroke-linejoin="round"/><path d="M123.332 243C70.36 135 168.309 131 203.79 138.5c29.406 6.216 85.456 29.5 105.945-25.5" stroke="#000" stroke-dasharray="25 25"/><path d="m345.717 67-29.375 25.7-.36 10.222c-.063 1.815 2.13 2.769 3.414 1.484l6.133-6.136m14.234 5.479 6.755-35.08c.3-1.56-1.25-2.83-2.721-2.229l-38.595 15.772c-1.521.621-1.685 2.71-.281 3.562l31.842 19.307a1.999 1.999 0 0 0 3-1.332Z" stroke="#000" stroke-width="2" stroke-linecap="round" stroke-linejoin="round"/></svg>