<svg width="1920" height="596" viewBox="0 0 1920 596" fill="none" xmlns="http://www.w3.org/2000/svg">
<path d="M1850 208.265C1871 185.709 1895 176.765 1921 198.265V594.265L1536.45 593.432C1535.44 593.266 1536.44 560.579 1536.45 487.532C1536.45 450.602 1594.9 399.923 1610.59 389.153C1633.13 373.672 1689.74 363.685 1746.85 379.165C1831.47 402.104 1782.5 280.765 1850 208.265Z" fill="#FFEB3C" stroke="black"/>
<path d="M1814.92 244C1852.46 244 1891.81 269 1921 294.5V596H1215C1215 596 1320 468.579 1425.15 456C1535.19 442.835 1667.82 532.5 1731.87 320.5C1751.3 256.165 1775.4 244 1814.92 244Z" fill="#8C52FF" stroke="black"/>
<circle cx="1426.5" cy="456.5" r="7" fill="#FFEB3C" stroke="black"/>
<circle cx="1785.5" cy="247.5" r="7" fill="#FFEB3C" stroke="black"/>
<circle cx="1619.5" cy="381.5" r="7" fill="#8C52FF" stroke="black"/>
<circle cx="1890.5" cy="185.5" r="7" fill="#8C52FF" stroke="black"/>
<path d="M103.61 241C66.0574 241 28.1975 265.965 -1 291.428V592H473C473 592 404.428 452.699 352.873 441.215C302.456 429.985 224.1 465.425 186.698 317.391C171.182 255.979 143.152 241 103.61 241Z" fill="#FFEB3C" stroke="black"/>
<path d="M184 284.701C101.661 276.126 28.8333 348.326 -1 388.134V596H1079C1035.5 548.364 895 574.014 813 547.531C763 531.383 703 426.609 616 410.12C529 393.631 432.5 507.435 348.5 480.075C255.916 449.918 283.242 295.035 184 284.701Z" fill="#8C52FF" stroke="black"/>
<circle cx="607.5" cy="409.5" r="7" fill="#FFEB3C" stroke="black"/>
<circle cx="1012.5" cy="567.5" r="7" fill="#FFEB3C" stroke="black"/>
<circle cx="187.5" cy="284.5" r="7" fill="#FFEB3C" stroke="black"/>
<circle cx="107.5" cy="240.5" r="7" fill="#8C52FF" stroke="black"/>
<circle cx="354.5" cy="442.5" r="7" fill="#8C52FF" stroke="black"/>
<line y1="490.5" x2="1920" y2="490.5" stroke="black"/>
<path d="M105 480L105 490L105 500" stroke="black"/>
<path d="M195 480L195 490L195 500" stroke="black"/>
<path d="M285 480L285 490L285 500" stroke="black"/>
<path d="M375 480L375 490L375 500" stroke="black"/>
<path d="M465 480L465 490L465 500" stroke="black"/>
<path d="M555 480L555 490L555 500" stroke="black"/>
<path d="M645 480L645 490L645 500" stroke="black"/>
<path d="M735 480L735 490L735 500" stroke="black"/>
<path d="M825 480L825 490L825 500" stroke="black"/>
<path d="M915 480L915 490L915 500" stroke="black"/>
<path d="M1005 480L1005 490L1005 500" stroke="black"/>
<path d="M1095 480L1095 490L1095 500" stroke="black"/>
<path d="M1185 480L1185 490L1185 500" stroke="black"/>
<path d="M1275 480L1275 490L1275 500" stroke="black"/>
<path d="M1365 480L1365 490L1365 500" stroke="black"/>
<path d="M1455 480L1455 490L1455 500" stroke="black"/>
<path d="M1545 480L1545 490L1545 500" stroke="black"/>
<path d="M1635 480L1635 490L1635 500" stroke="black"/>
<path d="M1725 480L1725 490L1725 500" stroke="black"/>
<path d="M1815 480L1815 490L1815 500" stroke="black"/>
<path d="M104.656 532V521.44L105.344 522.192H102.128V520.8H106.24V532H104.656Z" fill="black"/>
<path d="M190.592 532V530.912L195.152 526.512C195.557 526.128 195.856 525.792 196.048 525.504C196.251 525.205 196.384 524.933 196.448 524.688C196.523 524.432 196.56 524.187 196.56 523.952C196.56 523.376 196.357 522.923 195.952 522.592C195.547 522.261 194.955 522.096 194.176 522.096C193.579 522.096 193.04 522.197 192.56 522.4C192.08 522.592 191.664 522.896 191.312 523.312L190.224 522.368C190.651 521.824 191.221 521.408 191.936 521.12C192.661 520.821 193.456 520.672 194.32 520.672C195.099 520.672 195.776 520.8 196.352 521.056C196.928 521.301 197.371 521.659 197.68 522.128C198 522.597 198.16 523.152 198.16 523.792C198.16 524.155 198.112 524.512 198.016 524.864C197.92 525.216 197.739 525.589 197.472 525.984C197.205 526.379 196.821 526.821 196.32 527.312L192.256 531.232L191.872 530.608H198.64V532H190.592Z" fill="black"/>
<path d="M284.192 532.128C283.403 532.128 282.635 532.005 281.888 531.76C281.152 531.515 280.549 531.184 280.08 530.768L280.816 529.504C281.189 529.856 281.675 530.144 282.272 530.368C282.869 530.592 283.509 530.704 284.192 530.704C285.024 530.704 285.669 530.528 286.128 530.176C286.597 529.813 286.832 529.328 286.832 528.72C286.832 528.133 286.608 527.664 286.16 527.312C285.723 526.949 285.024 526.768 284.064 526.768H283.168V525.648L286.496 521.552L286.72 522.192H280.592V520.8H287.984V521.888L284.672 525.968L283.84 525.472H284.368C285.723 525.472 286.736 525.776 287.408 526.384C288.091 526.992 288.432 527.765 288.432 528.704C288.432 529.333 288.277 529.909 287.968 530.432C287.659 530.955 287.189 531.371 286.56 531.68C285.941 531.979 285.152 532.128 284.192 532.128Z" fill="black"/>
<path d="M370.608 529.248V528.128L376.336 520.8H378.064L372.384 528.128L371.568 527.872H380.512V529.248H370.608ZM376.832 532V529.248L376.88 527.872V525.44H378.384V532H376.832Z" fill="black"/>
<path d="M464.384 532.128C463.595 532.128 462.827 532.005 462.08 531.76C461.344 531.515 460.741 531.184 460.272 530.768L461.008 529.504C461.381 529.856 461.867 530.144 462.464 530.368C463.061 530.592 463.696 530.704 464.368 530.704C465.221 530.704 465.877 530.523 466.336 530.16C466.795 529.797 467.024 529.312 467.024 528.704C467.024 528.288 466.923 527.925 466.72 527.616C466.517 527.307 466.165 527.072 465.664 526.912C465.173 526.741 464.496 526.656 463.632 526.656H461.088L461.68 520.8H468V522.192H462.272L463.104 521.408L462.64 526.032L461.808 525.264H463.968C465.088 525.264 465.989 525.408 466.672 525.696C467.355 525.984 467.851 526.384 468.16 526.896C468.469 527.397 468.624 527.979 468.624 528.64C468.624 529.28 468.469 529.867 468.16 530.4C467.851 530.923 467.381 531.344 466.752 531.664C466.133 531.973 465.344 532.128 464.384 532.128Z" fill="black"/>
<path d="M555.472 532.128C554.48 532.128 553.632 531.909 552.928 531.472C552.224 531.035 551.685 530.405 551.312 529.584C550.949 528.752 550.768 527.739 550.768 526.544C550.768 525.275 550.992 524.203 551.44 523.328C551.888 522.453 552.512 521.792 553.312 521.344C554.112 520.896 555.029 520.672 556.064 520.672C556.597 520.672 557.104 520.725 557.584 520.832C558.075 520.939 558.496 521.104 558.848 521.328L558.24 522.576C557.952 522.373 557.621 522.235 557.248 522.16C556.885 522.085 556.501 522.048 556.096 522.048C554.955 522.048 554.048 522.405 553.376 523.12C552.704 523.824 552.368 524.875 552.368 526.272C552.368 526.496 552.379 526.763 552.4 527.072C552.421 527.381 552.475 527.685 552.56 527.984L552.016 527.44C552.176 526.949 552.427 526.539 552.768 526.208C553.12 525.867 553.536 525.616 554.016 525.456C554.507 525.285 555.035 525.2 555.6 525.2C556.347 525.2 557.008 525.339 557.584 525.616C558.16 525.893 558.613 526.288 558.944 526.8C559.275 527.301 559.44 527.899 559.44 528.592C559.44 529.307 559.264 529.931 558.912 530.464C558.56 530.997 558.085 531.408 557.488 531.696C556.891 531.984 556.219 532.128 555.472 532.128ZM555.408 530.832C555.899 530.832 556.325 530.741 556.688 530.56C557.061 530.379 557.355 530.128 557.568 529.808C557.781 529.477 557.888 529.093 557.888 528.656C557.888 527.995 557.659 527.472 557.2 527.088C556.741 526.693 556.117 526.496 555.328 526.496C554.816 526.496 554.368 526.592 553.984 526.784C553.6 526.976 553.296 527.237 553.072 527.568C552.859 527.888 552.752 528.256 552.752 528.672C552.752 529.056 552.853 529.413 553.056 529.744C553.259 530.064 553.557 530.325 553.952 530.528C554.347 530.731 554.832 530.832 555.408 530.832Z" fill="black"/>
<path d="M642.704 532L647.456 521.472L647.872 522.192H641.216L642.016 521.408V524.192H640.48V520.8H648.928V521.888L644.4 532H642.704Z" fill="black"/>
<path d="M735.136 532.128C734.229 532.128 733.445 531.995 732.784 531.728C732.123 531.461 731.611 531.083 731.248 530.592C730.885 530.091 730.704 529.504 730.704 528.832C730.704 528.171 730.875 527.611 731.216 527.152C731.568 526.683 732.075 526.331 732.736 526.096C733.397 525.851 734.197 525.728 735.136 525.728C736.075 525.728 736.875 525.851 737.536 526.096C738.208 526.331 738.72 526.683 739.072 527.152C739.424 527.621 739.6 528.181 739.6 528.832C739.6 529.504 739.419 530.091 739.056 530.592C738.693 531.083 738.176 531.461 737.504 531.728C736.832 531.995 736.043 532.128 735.136 532.128ZM735.136 530.832C736.032 530.832 736.731 530.651 737.232 530.288C737.744 529.915 738 529.413 738 528.784C738 528.165 737.744 527.68 737.232 527.328C736.731 526.965 736.032 526.784 735.136 526.784C734.251 526.784 733.557 526.965 733.056 527.328C732.555 527.68 732.304 528.165 732.304 528.784C732.304 529.413 732.555 529.915 733.056 530.288C733.557 530.651 734.251 530.832 735.136 530.832ZM735.136 526.592C734.283 526.592 733.557 526.48 732.96 526.256C732.363 526.021 731.904 525.691 731.584 525.264C731.264 524.827 731.104 524.309 731.104 523.712C731.104 523.083 731.269 522.544 731.6 522.096C731.941 521.637 732.416 521.285 733.024 521.04C733.632 520.795 734.336 520.672 735.136 520.672C735.947 520.672 736.656 520.795 737.264 521.04C737.872 521.285 738.347 521.637 738.688 522.096C739.029 522.544 739.2 523.083 739.2 523.712C739.2 524.309 739.04 524.827 738.72 525.264C738.4 525.691 737.936 526.021 737.328 526.256C736.72 526.48 735.989 526.592 735.136 526.592ZM735.136 525.568C735.915 525.568 736.523 525.408 736.96 525.088C737.408 524.768 737.632 524.331 737.632 523.776C737.632 523.211 737.403 522.768 736.944 522.448C736.485 522.128 735.883 521.968 735.136 521.968C734.389 521.968 733.792 522.128 733.344 522.448C732.907 522.768 732.688 523.211 732.688 523.776C732.688 524.331 732.901 524.768 733.328 525.088C733.765 525.408 734.368 525.568 735.136 525.568Z" fill="black"/>
<path d="M824.4 520.672C825.413 520.672 826.267 520.891 826.96 521.328C827.664 521.765 828.197 522.4 828.56 523.232C828.923 524.053 829.104 525.061 829.104 526.256C829.104 527.525 828.88 528.597 828.432 529.472C827.984 530.347 827.365 531.008 826.576 531.456C825.787 531.904 824.864 532.128 823.808 532.128C823.285 532.128 822.779 532.075 822.288 531.968C821.808 531.861 821.387 531.696 821.024 531.472L821.632 530.224C821.931 530.416 822.261 530.555 822.624 530.64C822.997 530.715 823.387 530.752 823.792 530.752C824.923 530.752 825.824 530.4 826.496 529.696C827.168 528.981 827.504 527.925 827.504 526.528C827.504 526.304 827.493 526.037 827.472 525.728C827.451 525.419 827.403 525.115 827.328 524.816L827.856 525.36C827.707 525.851 827.456 526.267 827.104 526.608C826.763 526.939 826.347 527.189 825.856 527.36C825.376 527.52 824.848 527.6 824.272 527.6C823.536 527.6 822.88 527.461 822.304 527.184C821.728 526.907 821.275 526.517 820.944 526.016C820.613 525.504 820.448 524.901 820.448 524.208C820.448 523.483 820.619 522.859 820.96 522.336C821.312 521.803 821.787 521.392 822.384 521.104C822.992 520.816 823.664 520.672 824.4 520.672ZM824.464 521.968C823.984 521.968 823.557 522.059 823.184 522.24C822.811 522.421 822.517 522.672 822.304 522.992C822.101 523.312 822 523.696 822 524.144C822 524.805 822.229 525.333 822.688 525.728C823.147 526.112 823.765 526.304 824.544 526.304C825.056 526.304 825.504 526.208 825.888 526.016C826.283 525.824 826.587 525.563 826.8 525.232C827.024 524.901 827.136 524.533 827.136 524.128C827.136 523.733 827.035 523.376 826.832 523.056C826.629 522.736 826.331 522.475 825.936 522.272C825.541 522.069 825.051 521.968 824.464 521.968Z" fill="black"/>
<path d="M909.656 532V521.44L910.344 522.192H907.128V520.8H911.24V532H909.656ZM918.266 532.128C917.391 532.128 916.607 531.904 915.914 531.456C915.231 531.008 914.687 530.357 914.282 529.504C913.887 528.651 913.69 527.616 913.69 526.4C913.69 525.184 913.887 524.149 914.282 523.296C914.687 522.443 915.231 521.792 915.914 521.344C916.607 520.896 917.391 520.672 918.266 520.672C919.13 520.672 919.909 520.896 920.602 521.344C921.295 521.792 921.839 522.443 922.234 523.296C922.629 524.149 922.826 525.184 922.826 526.4C922.826 527.616 922.629 528.651 922.234 529.504C921.839 530.357 921.295 531.008 920.602 531.456C919.909 531.904 919.13 532.128 918.266 532.128ZM918.266 530.704C918.853 530.704 919.365 530.544 919.802 530.224C920.25 529.904 920.597 529.424 920.842 528.784C921.098 528.144 921.226 527.349 921.226 526.4C921.226 525.451 921.098 524.656 920.842 524.016C920.597 523.376 920.25 522.896 919.802 522.576C919.365 522.256 918.853 522.096 918.266 522.096C917.679 522.096 917.162 522.256 916.714 522.576C916.266 522.896 915.914 523.376 915.658 524.016C915.413 524.656 915.29 525.451 915.29 526.4C915.29 527.349 915.413 528.144 915.658 528.784C915.914 529.424 916.266 529.904 916.714 530.224C917.162 530.544 917.679 530.704 918.266 530.704Z" fill="black"/>
<path d="M1001.66 532V521.44L1002.34 522.192H999.128V520.8H1003.24V532H1001.66ZM1007.58 532V521.44L1008.27 522.192H1005.05V520.8H1009.16V532H1007.58Z" fill="black"/>
<path d="M1089.66 532V521.44L1090.34 522.192H1087.13V520.8H1091.24V532H1089.66ZM1093.51 532V530.912L1098.07 526.512C1098.48 526.128 1098.78 525.792 1098.97 525.504C1099.17 525.205 1099.31 524.933 1099.37 524.688C1099.44 524.432 1099.48 524.187 1099.48 523.952C1099.48 523.376 1099.28 522.923 1098.87 522.592C1098.47 522.261 1097.88 522.096 1097.1 522.096C1096.5 522.096 1095.96 522.197 1095.48 522.4C1095 522.592 1094.59 522.896 1094.23 523.312L1093.15 522.368C1093.57 521.824 1094.14 521.408 1094.86 521.12C1095.58 520.821 1096.38 520.672 1097.24 520.672C1098.02 520.672 1098.7 520.8 1099.27 521.056C1099.85 521.301 1100.29 521.659 1100.6 522.128C1100.92 522.597 1101.08 523.152 1101.08 523.792C1101.08 524.155 1101.03 524.512 1100.94 524.864C1100.84 525.216 1100.66 525.589 1100.39 525.984C1100.13 526.379 1099.74 526.821 1099.24 527.312L1095.18 531.232L1094.79 530.608H1101.56V532H1093.51Z" fill="black"/>
<path d="M1179.66 532V521.44L1180.34 522.192H1177.13V520.8H1181.24V532H1179.66ZM1187.11 532.128C1186.32 532.128 1185.56 532.005 1184.81 531.76C1184.07 531.515 1183.47 531.184 1183 530.768L1183.74 529.504C1184.11 529.856 1184.6 530.144 1185.19 530.368C1185.79 530.592 1186.43 530.704 1187.11 530.704C1187.95 530.704 1188.59 530.528 1189.05 530.176C1189.52 529.813 1189.75 529.328 1189.75 528.72C1189.75 528.133 1189.53 527.664 1189.08 527.312C1188.64 526.949 1187.95 526.768 1186.99 526.768H1186.09V525.648L1189.42 521.552L1189.64 522.192H1183.51V520.8H1190.91V521.888L1187.59 525.968L1186.76 525.472H1187.29C1188.64 525.472 1189.66 525.776 1190.33 526.384C1191.01 526.992 1191.35 527.765 1191.35 528.704C1191.35 529.333 1191.2 529.909 1190.89 530.432C1190.58 530.955 1190.11 531.371 1189.48 531.68C1188.86 531.979 1188.07 532.128 1187.11 532.128Z" fill="black"/>
<path d="M1269.66 532V521.44L1270.34 522.192H1267.13V520.8H1271.24V532H1269.66ZM1273.53 529.248V528.128L1279.26 520.8H1280.99L1275.31 528.128L1274.49 527.872H1283.43V529.248H1273.53ZM1279.75 532V529.248L1279.8 527.872V525.44H1281.31V532H1279.75Z" fill="black"/>
<path d="M1359.66 532V521.44L1360.34 522.192H1357.13V520.8H1361.24V532H1359.66ZM1367.31 532.128C1366.52 532.128 1365.75 532.005 1365 531.76C1364.27 531.515 1363.66 531.184 1363.19 530.768L1363.93 529.504C1364.3 529.856 1364.79 530.144 1365.39 530.368C1365.98 530.592 1366.62 530.704 1367.29 530.704C1368.14 530.704 1368.8 530.523 1369.26 530.16C1369.72 529.797 1369.95 529.312 1369.95 528.704C1369.95 528.288 1369.84 527.925 1369.64 527.616C1369.44 527.307 1369.09 527.072 1368.59 526.912C1368.1 526.741 1367.42 526.656 1366.55 526.656H1364.01L1364.6 520.8H1370.92V522.192H1365.19L1366.03 521.408L1365.56 526.032L1364.73 525.264H1366.89C1368.01 525.264 1368.91 525.408 1369.59 525.696C1370.28 525.984 1370.77 526.384 1371.08 526.896C1371.39 527.397 1371.55 527.979 1371.55 528.64C1371.55 529.28 1371.39 529.867 1371.08 530.4C1370.77 530.923 1370.3 531.344 1369.67 531.664C1369.06 531.973 1368.27 532.128 1367.31 532.128Z" fill="black"/>
<path d="M1449.66 532V521.44L1450.34 522.192H1447.13V520.8H1451.24V532H1449.66ZM1458.39 532.128C1457.4 532.128 1456.55 531.909 1455.85 531.472C1455.15 531.035 1454.61 530.405 1454.23 529.584C1453.87 528.752 1453.69 527.739 1453.69 526.544C1453.69 525.275 1453.91 524.203 1454.36 523.328C1454.81 522.453 1455.43 521.792 1456.23 521.344C1457.03 520.896 1457.95 520.672 1458.99 520.672C1459.52 520.672 1460.03 520.725 1460.51 520.832C1461 520.939 1461.42 521.104 1461.77 521.328L1461.16 522.576C1460.87 522.373 1460.54 522.235 1460.17 522.16C1459.81 522.085 1459.42 522.048 1459.02 522.048C1457.88 522.048 1456.97 522.405 1456.3 523.12C1455.63 523.824 1455.29 524.875 1455.29 526.272C1455.29 526.496 1455.3 526.763 1455.32 527.072C1455.34 527.381 1455.4 527.685 1455.48 527.984L1454.94 527.44C1455.1 526.949 1455.35 526.539 1455.69 526.208C1456.04 525.867 1456.46 525.616 1456.94 525.456C1457.43 525.285 1457.96 525.2 1458.52 525.2C1459.27 525.2 1459.93 525.339 1460.51 525.616C1461.08 525.893 1461.54 526.288 1461.87 526.8C1462.2 527.301 1462.36 527.899 1462.36 528.592C1462.36 529.307 1462.19 529.931 1461.83 530.464C1461.48 530.997 1461.01 531.408 1460.41 531.696C1459.81 531.984 1459.14 532.128 1458.39 532.128ZM1458.33 530.832C1458.82 530.832 1459.25 530.741 1459.61 530.56C1459.98 530.379 1460.28 530.128 1460.49 529.808C1460.7 529.477 1460.81 529.093 1460.81 528.656C1460.81 527.995 1460.58 527.472 1460.12 527.088C1459.66 526.693 1459.04 526.496 1458.25 526.496C1457.74 526.496 1457.29 526.592 1456.91 526.784C1456.52 526.976 1456.22 527.237 1455.99 527.568C1455.78 527.888 1455.67 528.256 1455.67 528.672C1455.67 529.056 1455.78 529.413 1455.98 529.744C1456.18 530.064 1456.48 530.325 1456.87 530.528C1457.27 530.731 1457.75 530.832 1458.33 530.832Z" fill="black"/>
<path d="M1539.66 532V521.44L1540.34 522.192H1537.13V520.8H1541.24V532H1539.66ZM1545.63 532L1550.38 521.472L1550.79 522.192H1544.14L1544.94 521.408V524.192H1543.4V520.8H1551.85V521.888L1547.32 532H1545.63Z" fill="black"/>
<path d="M1629.66 532V521.44L1630.34 522.192H1627.13V520.8H1631.24V532H1629.66ZM1638.06 532.128C1637.15 532.128 1636.37 531.995 1635.71 531.728C1635.04 531.461 1634.53 531.083 1634.17 530.592C1633.81 530.091 1633.63 529.504 1633.63 528.832C1633.63 528.171 1633.8 527.611 1634.14 527.152C1634.49 526.683 1635 526.331 1635.66 526.096C1636.32 525.851 1637.12 525.728 1638.06 525.728C1639 525.728 1639.8 525.851 1640.46 526.096C1641.13 526.331 1641.64 526.683 1641.99 527.152C1642.35 527.621 1642.52 528.181 1642.52 528.832C1642.52 529.504 1642.34 530.091 1641.98 530.592C1641.62 531.083 1641.1 531.461 1640.43 531.728C1639.75 531.995 1638.96 532.128 1638.06 532.128ZM1638.06 530.832C1638.95 530.832 1639.65 530.651 1640.15 530.288C1640.67 529.915 1640.92 529.413 1640.92 528.784C1640.92 528.165 1640.67 527.68 1640.15 527.328C1639.65 526.965 1638.95 526.784 1638.06 526.784C1637.17 526.784 1636.48 526.965 1635.98 527.328C1635.48 527.68 1635.23 528.165 1635.23 528.784C1635.23 529.413 1635.48 529.915 1635.98 530.288C1636.48 530.651 1637.17 530.832 1638.06 530.832ZM1638.06 526.592C1637.2 526.592 1636.48 526.48 1635.88 526.256C1635.28 526.021 1634.83 525.691 1634.51 525.264C1634.19 524.827 1634.03 524.309 1634.03 523.712C1634.03 523.083 1634.19 522.544 1634.52 522.096C1634.86 521.637 1635.34 521.285 1635.95 521.04C1636.55 520.795 1637.26 520.672 1638.06 520.672C1638.87 520.672 1639.58 520.795 1640.19 521.04C1640.79 521.285 1641.27 521.637 1641.61 522.096C1641.95 522.544 1642.12 523.083 1642.12 523.712C1642.12 524.309 1641.96 524.827 1641.64 525.264C1641.32 525.691 1640.86 526.021 1640.25 526.256C1639.64 526.48 1638.91 526.592 1638.06 526.592ZM1638.06 525.568C1638.84 525.568 1639.44 525.408 1639.88 525.088C1640.33 524.768 1640.55 524.331 1640.55 523.776C1640.55 523.211 1640.32 522.768 1639.87 522.448C1639.41 522.128 1638.8 521.968 1638.06 521.968C1637.31 521.968 1636.71 522.128 1636.27 522.448C1635.83 522.768 1635.61 523.211 1635.61 523.776C1635.61 524.331 1635.82 524.768 1636.25 525.088C1636.69 525.408 1637.29 525.568 1638.06 525.568Z" fill="black"/>
<path d="M1720.66 532V521.44L1721.34 522.192H1718.13V520.8H1722.24V532H1720.66ZM1728.32 520.672C1729.34 520.672 1730.19 520.891 1730.88 521.328C1731.59 521.765 1732.12 522.4 1732.48 523.232C1732.84 524.053 1733.03 525.061 1733.03 526.256C1733.03 527.525 1732.8 528.597 1732.35 529.472C1731.91 530.347 1731.29 531.008 1730.5 531.456C1729.71 531.904 1728.79 532.128 1727.73 532.128C1727.21 532.128 1726.7 532.075 1726.21 531.968C1725.73 531.861 1725.31 531.696 1724.95 531.472L1725.55 530.224C1725.85 530.416 1726.18 530.555 1726.55 530.64C1726.92 530.715 1727.31 530.752 1727.71 530.752C1728.84 530.752 1729.75 530.4 1730.42 529.696C1731.09 528.981 1731.43 527.925 1731.43 526.528C1731.43 526.304 1731.42 526.037 1731.39 525.728C1731.37 525.419 1731.32 525.115 1731.25 524.816L1731.78 525.36C1731.63 525.851 1731.38 526.267 1731.03 526.608C1730.68 526.939 1730.27 527.189 1729.78 527.36C1729.3 527.52 1728.77 527.6 1728.19 527.6C1727.46 527.6 1726.8 527.461 1726.23 527.184C1725.65 526.907 1725.2 526.517 1724.87 526.016C1724.54 525.504 1724.37 524.901 1724.37 524.208C1724.37 523.483 1724.54 522.859 1724.88 522.336C1725.23 521.803 1725.71 521.392 1726.31 521.104C1726.91 520.816 1727.59 520.672 1728.32 520.672ZM1728.39 521.968C1727.91 521.968 1727.48 522.059 1727.11 522.24C1726.73 522.421 1726.44 522.672 1726.23 522.992C1726.02 523.312 1725.92 523.696 1725.92 524.144C1725.92 524.805 1726.15 525.333 1726.61 525.728C1727.07 526.112 1727.69 526.304 1728.47 526.304C1728.98 526.304 1729.43 526.208 1729.81 526.016C1730.2 525.824 1730.51 525.563 1730.72 525.232C1730.95 524.901 1731.06 524.533 1731.06 524.128C1731.06 523.733 1730.96 523.376 1730.75 523.056C1730.55 522.736 1730.25 522.475 1729.86 522.272C1729.46 522.069 1728.97 521.968 1728.39 521.968Z" fill="black"/>
<path d="M1805.59 532V530.912L1810.15 526.512C1810.56 526.128 1810.86 525.792 1811.05 525.504C1811.25 525.205 1811.38 524.933 1811.45 524.688C1811.52 524.432 1811.56 524.187 1811.56 523.952C1811.56 523.376 1811.36 522.923 1810.95 522.592C1810.55 522.261 1809.95 522.096 1809.18 522.096C1808.58 522.096 1808.04 522.197 1807.56 522.4C1807.08 522.592 1806.66 522.896 1806.31 523.312L1805.22 522.368C1805.65 521.824 1806.22 521.408 1806.94 521.12C1807.66 520.821 1808.46 520.672 1809.32 520.672C1810.1 520.672 1810.78 520.8 1811.35 521.056C1811.93 521.301 1812.37 521.659 1812.68 522.128C1813 522.597 1813.16 523.152 1813.16 523.792C1813.16 524.155 1813.11 524.512 1813.02 524.864C1812.92 525.216 1812.74 525.589 1812.47 525.984C1812.21 526.379 1811.82 526.821 1811.32 527.312L1807.26 531.232L1806.87 530.608H1813.64V532H1805.59ZM1819.52 532.128C1818.64 532.128 1817.86 531.904 1817.16 531.456C1816.48 531.008 1815.94 530.357 1815.53 529.504C1815.14 528.651 1814.94 527.616 1814.94 526.4C1814.94 525.184 1815.14 524.149 1815.53 523.296C1815.94 522.443 1816.48 521.792 1817.16 521.344C1817.86 520.896 1818.64 520.672 1819.52 520.672C1820.38 520.672 1821.16 520.896 1821.85 521.344C1822.55 521.792 1823.09 522.443 1823.48 523.296C1823.88 524.149 1824.08 525.184 1824.08 526.4C1824.08 527.616 1823.88 528.651 1823.48 529.504C1823.09 530.357 1822.55 531.008 1821.85 531.456C1821.16 531.904 1820.38 532.128 1819.52 532.128ZM1819.52 530.704C1820.1 530.704 1820.61 530.544 1821.05 530.224C1821.5 529.904 1821.85 529.424 1822.09 528.784C1822.35 528.144 1822.48 527.349 1822.48 526.4C1822.48 525.451 1822.35 524.656 1822.09 524.016C1821.85 523.376 1821.5 522.896 1821.05 522.576C1820.61 522.256 1820.1 522.096 1819.52 522.096C1818.93 522.096 1818.41 522.256 1817.96 522.576C1817.52 522.896 1817.16 523.376 1816.91 524.016C1816.66 524.656 1816.54 525.451 1816.54 526.4C1816.54 527.349 1816.66 528.144 1816.91 528.784C1817.16 529.424 1817.52 529.904 1817.96 530.224C1818.41 530.544 1818.93 530.704 1819.52 530.704Z" fill="black"/>
<path d="M1730.28 326C1644.57 246.5 1699.38 196 1714.83 182.5C1730.28 169 1769.64 118 1714.83 54" stroke="black" stroke-dasharray="25 25"/>
<path d="M1677.46 9L1706.75 34.6991L1707.11 44.9117C1707.17 46.7281 1704.97 47.681 1703.69 46.3936L1697.59 40.2696M1683.4 45.7435L1676.66 10.672C1676.36 9.11161 1677.91 7.84179 1679.39 8.44437L1717.86 24.2126C1719.38 24.8348 1719.54 26.9195 1718.14 27.772L1686.4 47.0752C1685.21 47.7999 1683.66 47.1131 1683.4 45.7435Z" stroke="black" stroke-width="2" stroke-linecap="round" stroke-linejoin="round"/>
<path d="M122.397 243C69.397 135 167.397 131 202.897 138.5C232.318 144.716 288.397 168 308.897 113" stroke="black" stroke-dasharray="25 25"/>
<path d="M344.897 67L315.507 92.6991L315.147 102.924C315.083 104.738 317.276 105.692 318.56 104.408L324.699 98.2696M338.94 103.75L345.698 68.6691C345.999 67.1094 344.449 65.8387 342.978 66.4393L304.361 82.212C302.84 82.8333 302.675 84.9222 304.081 85.7739L335.94 105.082C337.131 105.804 338.677 105.118 338.94 103.75Z" stroke="black" stroke-width="2" stroke-linecap="round" stroke-linejoin="round"/>
</svg>
